M48
;DRILL file {KiCad 5.0.0} date Thu Sep 20 13:28:20 2018
;FORMAT={2:4/ absolute / inch / keep zeros}
FMAT,2
INCH,TZ
T1C0.0079
T2C0.0118
T3C0.0236
T4C0.0315
T5C0.0315
T6C0.1142
%
G90
G05
M72
T1
X004587Y-010435
X004837Y-010435
X006587Y-030435
X007337Y-010685
X007337Y-016435
X008087Y-023185
X011837Y-012185
X011837Y-024435
X011837Y-025435
X011962Y-028560
X012587Y-020560
X018087Y-001185
X019087Y-000935
X020087Y-000685
X025712Y-004560
X029087Y-001185
X030087Y-000935
X031087Y-000685
X034712Y-038810
X034837Y-038310
X035837Y-038560
X036087Y-005935
X036087Y-019810
X036212Y-035935
X036337Y-003685
X044337Y-001185
X045337Y-000935
X046337Y-000685
X049087Y-038560
X050087Y-038810
T2
X005212Y-002435
X007087Y-028185
X007087Y-036685
X014337Y-021685
X015212Y-000435
X015962Y-038060
X016337Y-002435
X016337Y-004685
X016337Y-006935
X016337Y-009185
X016337Y-011435
X016337Y-013685
X016337Y-015935
X016337Y-018185
X016337Y-021185
X016337Y-022310
X016337Y-023435
X016337Y-025685
X016337Y-027935
X016337Y-030185
X016337Y-032435
X016337Y-034685
X016337Y-036935
X024962Y-022935
X025087Y-019810
X026212Y-000435
X026962Y-038060
X027337Y-002435
X027337Y-004685
X027337Y-006935
X027337Y-009185
X027337Y-011435
X027337Y-013685
X027337Y-015935
X027337Y-018185
X027337Y-019560
X027337Y-021185
X027337Y-023435
X027337Y-025685
X027337Y-027935
X027337Y-030185
X027337Y-032435
X027337Y-034685
X027337Y-036935
X031837Y-019560
X037587Y-018685
X038087Y-020685
X038337Y-016685
X039837Y-000435
X040587Y-020060
X042587Y-002435
X042587Y-004685
X042587Y-006935
X042587Y-009185
X042587Y-011435
X042587Y-013685
X042587Y-015935
X042587Y-018185
X042587Y-020060
X042587Y-021185
X042587Y-023435
X042587Y-025685
X042587Y-027935
X042587Y-030185
X042587Y-032435
X042587Y-034685
X042587Y-036935
X047712Y-019810
X051462Y-019810
X052962Y-000435
X053212Y-038185
X053587Y-002435
X053587Y-004685
X053587Y-006935
X053587Y-009185
X053587Y-011435
X053587Y-013685
X053587Y-015935
X053587Y-018185
X053587Y-019810
X053587Y-021185
X053587Y-023435
X053587Y-025685
X053587Y-027935
X053587Y-030185
X053587Y-032435
X053587Y-034685
X053587Y-036935
X058587Y-019435
X062462Y-019810
T3
X015212Y-036435
X015212Y-036935
X015212Y-037435
X052462Y-022935
X052462Y-023435
X052462Y-023935
X015212Y-017685
X015212Y-018185
X015212Y-018685
X015212Y-020685
X015212Y-021185
X015212Y-021685
X015212Y-022935
X015212Y-023435
X015212Y-023935
X052462Y-006435
X052462Y-006935
X052462Y-007435
X052462Y-008685
X052462Y-009185
X052462Y-009685
X052462Y-010935
X052462Y-011435
X052462Y-011935
X015212Y-004185
X015212Y-004685
X015212Y-005185
X015212Y-006435
X015212Y-006935
X015212Y-007435
X041462Y-027435
X041462Y-027935
X041462Y-028435
X041462Y-029685
X041462Y-030185
X041462Y-030685
X015212Y-025185
X015212Y-025685
X015212Y-026185
X041462Y-001935
X041462Y-002435
X041462Y-002935
X041462Y-004185
X041462Y-004685
X041462Y-005185
X041462Y-008685
X041462Y-009185
X041462Y-009685
X041462Y-010935
X041462Y-011435
X041462Y-011935
X052462Y-025185
X052462Y-025685
X052462Y-026185
X026212Y-022935
X026212Y-023435
X026212Y-023935
X026212Y-025185
X026212Y-025685
X026212Y-026185
X026212Y-027435
X026212Y-027935
X026212Y-028435
X026212Y-004185
X026212Y-004685
X026212Y-005185
X026212Y-006435
X026212Y-006935
X026212Y-007435
X026212Y-008685
X026212Y-009185
X026212Y-009685
X015212Y-013185
X015212Y-013685
X015212Y-014185
X015212Y-029685
X015212Y-030185
X015212Y-030685
X015212Y-034185
X015212Y-034685
X015212Y-035185
X015212Y-031935
X015212Y-032435
X015212Y-032935
X052462Y-017685
X052462Y-018185
X052462Y-018685
X052462Y-020685
X052462Y-021185
X052462Y-021685
X015212Y-010935
X015212Y-011435
X015212Y-011935
X015212Y-015435
X015212Y-015935
X015212Y-016435
X041462Y-036435
X041462Y-036935
X041462Y-037435
X052462Y-001935
X052462Y-002435
X052462Y-002935
X052462Y-004185
X052462Y-004685
X052462Y-005185
X041462Y-017685
X041462Y-018185
X041462Y-018685
X041462Y-020685
X041462Y-021185
X041462Y-021685
X041462Y-022935
X041462Y-023435
X041462Y-023935
X041462Y-025185
X041462Y-025685
X041462Y-026185
X052462Y-034185
X052462Y-034685
X052462Y-035185
X026212Y-031935
X026212Y-032435
X026212Y-032935
X026212Y-034185
X026212Y-034685
X026212Y-035185
X026212Y-036435
X026212Y-036935
X026212Y-037435
X041462Y-006435
X041462Y-006935
X041462Y-007435
X026212Y-017685
X026212Y-018185
X026212Y-018685
X026212Y-020685
X026212Y-021185
X026212Y-021685
X026212Y-001935
X026212Y-002435
X026212Y-002935
X015212Y-027435
X015212Y-027935
X015212Y-028435
X052462Y-013185
X052462Y-013685
X052462Y-014185
X052462Y-015435
X052462Y-015935
X052462Y-016435
X015212Y-008685
X015212Y-009185
X015212Y-009685
X041462Y-031935
X041462Y-032435
X041462Y-032935
X041462Y-034185
X041462Y-034685
X041462Y-035185
X015212Y-001935
X015212Y-002435
X015212Y-002935
X041462Y-013185
X041462Y-013685
X041462Y-014185
X041462Y-015435
X041462Y-015935
X041462Y-016435
X052462Y-029685
X052462Y-030185
X052462Y-030685
X052462Y-031935
X052462Y-032435
X052462Y-032935
X052462Y-036435
X052462Y-036935
X052462Y-037435
X052462Y-027435
X052462Y-027935
X052462Y-028435
X026212Y-029685
X026212Y-030185
X026212Y-030685
X026212Y-010935
X026212Y-011435
X026212Y-011935
X026212Y-013185
X026212Y-013685
X026212Y-014185
X026212Y-015435
X026212Y-015935
X026212Y-016435
T4
X028087Y-020685
X028087Y-021685
X029087Y-020685
X029087Y-021685
X030087Y-020685
X030087Y-021685
X031087Y-020685
X031087Y-021685
X017087Y-022935
X017087Y-023935
X018087Y-022935
X018087Y-023935
X019087Y-022935
X019087Y-023935
X020087Y-022935
X020087Y-023935
X028087Y-015435
X028087Y-016435
X029087Y-015435
X029087Y-016435
X030087Y-015435
X030087Y-016435
X031087Y-015435
X031087Y-016435
X043337Y-013185
X043337Y-014185
X044337Y-013185
X044337Y-014185
X045337Y-013185
X045337Y-014185
X046337Y-013185
X046337Y-014185
X047587Y-031935
X047587Y-032935
X048587Y-031935
X048587Y-032935
X049587Y-031935
X049587Y-032935
X050587Y-031935
X050587Y-032935
X054337Y-001935
X054337Y-002935
X055337Y-001935
X055337Y-002935
X056337Y-001935
X056337Y-002935
X057337Y-001935
X057337Y-002935
X010587Y-013435
X010587Y-014435
X010587Y-015435
X010587Y-016435
X010587Y-017435
X010587Y-018435
X010587Y-019435
X010587Y-020435
X013587Y-013435
X013587Y-014435
X013587Y-015435
X013587Y-016435
X013587Y-017435
X013587Y-018435
X013587Y-019435
X013587Y-020435
X010587Y-001810
X013587Y-001810
X032337Y-022935
X032337Y-023935
X033337Y-022935
X033337Y-023935
X034337Y-022935
X034337Y-023935
X035337Y-022935
X035337Y-023935
X021337Y-010935
X021337Y-011935
X022337Y-010935
X022337Y-011935
X023337Y-010935
X023337Y-011935
X024337Y-010935
X024337Y-011935
X032337Y-017685
X032337Y-018685
X033337Y-017685
X033337Y-018685
X034337Y-017685
X034337Y-018685
X035337Y-017685
X035337Y-018685
X058587Y-036435
X058587Y-037435
X059587Y-036435
X059587Y-037435
X060587Y-036435
X060587Y-037435
X061587Y-036435
X061587Y-037435
X058587Y-017685
X058587Y-018685
X059587Y-017685
X059587Y-018685
X060587Y-017685
X060587Y-018685
X061587Y-017685
X061587Y-018685
X054337Y-022935
X054337Y-023935
X055337Y-022935
X055337Y-023935
X056337Y-022935
X056337Y-023935
X057337Y-022935
X057337Y-023935
X021337Y-031935
X021337Y-032935
X022337Y-031935
X022337Y-032935
X023337Y-031935
X023337Y-032935
X024337Y-031935
X024337Y-032935
X032337Y-010935
X032337Y-011935
X033337Y-010935
X033337Y-011935
X034337Y-010935
X034337Y-011935
X035337Y-010935
X035337Y-011935
X005837Y-001935
X005837Y-002935
X005837Y-003935
X005837Y-004935
X005837Y-005935
X005837Y-006935
X005837Y-007935
X008837Y-001935
X008837Y-002935
X008837Y-003935
X008837Y-004935
X008837Y-005935
X008837Y-006935
X008837Y-007935
X021337Y-008685
X021337Y-009685
X022337Y-008685
X022337Y-009685
X023337Y-008685
X023337Y-009685
X024337Y-008685
X024337Y-009685
X021337Y-004185
X021337Y-005185
X022337Y-004185
X022337Y-005185
X023337Y-004185
X023337Y-005185
X024337Y-004185
X024337Y-005185
X017087Y-017685
X017087Y-018685
X018087Y-017685
X018087Y-018685
X019087Y-017685
X019087Y-018685
X020087Y-017685
X020087Y-018685
X032337Y-004185
X032337Y-005185
X033337Y-004185
X033337Y-005185
X034337Y-004185
X034337Y-005185
X035337Y-004185
X035337Y-005185
X017087Y-008685
X017087Y-009685
X018087Y-008685
X018087Y-009685
X019087Y-008685
X019087Y-009685
X020087Y-008685
X020087Y-009685
X032337Y-020685
X032337Y-021685
X033337Y-020685
X033337Y-021685
X034337Y-020685
X034337Y-021685
X035337Y-020685
X035337Y-021685
X047587Y-001935
X047587Y-002935
X048587Y-001935
X048587Y-002935
X049587Y-001935
X049587Y-002935
X050587Y-001935
X050587Y-002935
X021337Y-034185
X021337Y-035185
X022337Y-034185
X022337Y-035185
X023337Y-034185
X023337Y-035185
X024337Y-034185
X024337Y-035185
X028087Y-004185
X028087Y-005185
X029087Y-004185
X029087Y-005185
X030087Y-004185
X030087Y-005185
X031087Y-004185
X031087Y-005185
X058587Y-010935
X058587Y-011935
X059587Y-010935
X059587Y-011935
X060587Y-010935
X060587Y-011935
X061587Y-010935
X061587Y-011935
X054337Y-034185
X054337Y-035185
X055337Y-034185
X055337Y-035185
X056337Y-034185
X056337Y-035185
X057337Y-034185
X057337Y-035185
X021337Y-027435
X021337Y-028435
X022337Y-027435
X022337Y-028435
X023337Y-027435
X023337Y-028435
X024337Y-027435
X024337Y-028435
X021337Y-001935
X021337Y-002935
X022337Y-001935
X022337Y-002935
X023337Y-001935
X023337Y-002935
X024337Y-001935
X024337Y-002935
X017087Y-006435
X017087Y-007435
X018087Y-006435
X018087Y-007435
X019087Y-006435
X019087Y-007435
X020087Y-006435
X020087Y-007435
X017087Y-034185
X017087Y-035185
X018087Y-034185
X018087Y-035185
X019087Y-034185
X019087Y-035185
X020087Y-034185
X020087Y-035185
X028087Y-025185
X028087Y-026185
X029087Y-025185
X029087Y-026185
X030087Y-025185
X030087Y-026185
X031087Y-025185
X031087Y-026185
X021337Y-020685
X021337Y-021685
X022337Y-020685
X022337Y-021685
X023337Y-020685
X023337Y-021685
X024337Y-020685
X024337Y-021685
X017087Y-020685
X017087Y-021685
X018087Y-020685
X018087Y-021685
X019087Y-020685
X019087Y-021685
X020087Y-020685
X020087Y-021685
X043337Y-020685
X043337Y-021685
X044337Y-020685
X044337Y-021685
X045337Y-020685
X045337Y-021685
X046337Y-020685
X046337Y-021685
X058587Y-013185
X058587Y-014185
X059587Y-013185
X059587Y-014185
X060587Y-013185
X060587Y-014185
X061587Y-013185
X061587Y-014185
X054337Y-036435
X054337Y-037435
X055337Y-036435
X055337Y-037435
X056337Y-036435
X056337Y-037435
X057337Y-036435
X057337Y-037435
X010587Y-030435
X010587Y-031435
X010587Y-032435
X010587Y-033435
X010587Y-034435
X010587Y-035435
X010587Y-036435
X010587Y-037435
X013587Y-030435
X013587Y-031435
X013587Y-032435
X013587Y-033435
X013587Y-034435
X013587Y-035435
X013587Y-036435
X013587Y-037435
X021337Y-036435
X021337Y-037435
X022337Y-036435
X022337Y-037435
X023337Y-036435
X023337Y-037435
X024337Y-036435
X024337Y-037435
X047587Y-022935
X047587Y-023935
X048587Y-022935
X048587Y-023935
X049587Y-022935
X049587Y-023935
X050587Y-022935
X050587Y-023935
X043337Y-004185
X043337Y-005185
X044337Y-004185
X044337Y-005185
X045337Y-004185
X045337Y-005185
X046337Y-004185
X046337Y-005185
X010587Y-021935
X010587Y-022935
X010587Y-023935
X010587Y-024935
X010587Y-025935
X010587Y-026935
X010587Y-027935
X010587Y-028935
X013587Y-021935
X013587Y-022935
X013587Y-023935
X013587Y-024935
X013587Y-025935
X013587Y-026935
X013587Y-027935
X013587Y-028935
X017087Y-036435
X017087Y-037435
X018087Y-036435
X018087Y-037435
X019087Y-036435
X019087Y-037435
X020087Y-036435
X020087Y-037435
X028087Y-027435
X028087Y-028435
X029087Y-027435
X029087Y-028435
X030087Y-027435
X030087Y-028435
X031087Y-027435
X031087Y-028435
X058587Y-006435
X058587Y-007435
X059587Y-006435
X059587Y-007435
X060587Y-006435
X060587Y-007435
X061587Y-006435
X061587Y-007435
X058587Y-015435
X058587Y-016435
X059587Y-015435
X059587Y-016435
X060587Y-015435
X060587Y-016435
X061587Y-015435
X061587Y-016435
X032337Y-036435
X032337Y-037435
X033337Y-036435
X033337Y-037435
X034337Y-036435
X034337Y-037435
X035337Y-036435
X035337Y-037435
X011118Y-003560
X013087Y-003560
X021337Y-025185
X021337Y-026185
X022337Y-025185
X022337Y-026185
X023337Y-025185
X023337Y-026185
X024337Y-025185
X024337Y-026185
X047587Y-015435
X047587Y-016435
X048587Y-015435
X048587Y-016435
X049587Y-015435
X049587Y-016435
X050587Y-015435
X050587Y-016435
X043337Y-031935
X043337Y-032935
X044337Y-031935
X044337Y-032935
X045337Y-031935
X045337Y-032935
X046337Y-031935
X046337Y-032935
X058587Y-004185
X058587Y-005185
X059587Y-004185
X059587Y-005185
X060587Y-004185
X060587Y-005185
X061587Y-004185
X061587Y-005185
X017087Y-031935
X017087Y-032935
X018087Y-031935
X018087Y-032935
X019087Y-031935
X019087Y-032935
X020087Y-031935
X020087Y-032935
X028087Y-022935
X028087Y-023935
X029087Y-022935
X029087Y-023935
X030087Y-022935
X030087Y-023935
X031087Y-022935
X031087Y-023935
X058587Y-008685
X058587Y-009685
X059587Y-008685
X059587Y-009685
X060587Y-008685
X060587Y-009685
X061587Y-008685
X061587Y-009685
X054337Y-031935
X054337Y-032935
X055337Y-031935
X055337Y-032935
X056337Y-031935
X056337Y-032935
X057337Y-031935
X057337Y-032935
X017087Y-010935
X017087Y-011935
X018087Y-010935
X018087Y-011935
X019087Y-010935
X019087Y-011935
X020087Y-010935
X020087Y-011935
X017087Y-025185
X017087Y-026185
X018087Y-025185
X018087Y-026185
X019087Y-025185
X019087Y-026185
X020087Y-025185
X020087Y-026185
X028087Y-017685
X028087Y-018685
X029087Y-017685
X029087Y-018685
X030087Y-017685
X030087Y-018685
X031087Y-017685
X031087Y-018685
X043337Y-025185
X043337Y-026185
X044337Y-025185
X044337Y-026185
X045337Y-025185
X045337Y-026185
X046337Y-025185
X046337Y-026185
X054337Y-013185
X054337Y-014185
X055337Y-013185
X055337Y-014185
X056337Y-013185
X056337Y-014185
X057337Y-013185
X057337Y-014185
X047587Y-008685
X047587Y-009685
X048587Y-008685
X048587Y-009685
X049587Y-008685
X049587Y-009685
X050587Y-008685
X050587Y-009685
X028087Y-010935
X028087Y-011935
X029087Y-010935
X029087Y-011935
X030087Y-010935
X030087Y-011935
X031087Y-010935
X031087Y-011935
X054337Y-020685
X054337Y-021685
X055337Y-020685
X055337Y-021685
X056337Y-020685
X056337Y-021685
X057337Y-020685
X057337Y-021685
X032337Y-031935
X032337Y-032935
X033337Y-031935
X033337Y-032935
X034337Y-031935
X034337Y-032935
X035337Y-031935
X035337Y-032935
X043337Y-008685
X043337Y-009685
X044337Y-008685
X044337Y-009685
X045337Y-008685
X045337Y-009685
X046337Y-008685
X046337Y-009685
X028087Y-031935
X028087Y-032935
X029087Y-031935
X029087Y-032935
X030087Y-031935
X030087Y-032935
X031087Y-031935
X031087Y-032935
X058587Y-020685
X058587Y-021685
X059587Y-020685
X059587Y-021685
X060587Y-020685
X060587Y-021685
X061587Y-020685
X061587Y-021685
X043337Y-001935
X043337Y-002935
X044337Y-001935
X044337Y-002935
X045337Y-001935
X045337Y-002935
X046337Y-001935
X046337Y-002935
X054337Y-006435
X054337Y-007435
X055337Y-006435
X055337Y-007435
X056337Y-006435
X056337Y-007435
X057337Y-006435
X057337Y-007435
X054337Y-015435
X054337Y-016435
X055337Y-015435
X055337Y-016435
X056337Y-015435
X056337Y-016435
X057337Y-015435
X057337Y-016435
X058587Y-031935
X058587Y-032935
X059587Y-031935
X059587Y-032935
X060587Y-031935
X060587Y-032935
X061587Y-031935
X061587Y-032935
X017087Y-004185
X017087Y-005185
X018087Y-004185
X018087Y-005185
X019087Y-004185
X019087Y-005185
X020087Y-004185
X020087Y-005185
X017087Y-027435
X017087Y-028435
X018087Y-027435
X018087Y-028435
X019087Y-027435
X019087Y-028435
X020087Y-027435
X020087Y-028435
X047587Y-004185
X047587Y-005185
X048587Y-004185
X048587Y-005185
X049587Y-004185
X049587Y-005185
X050587Y-004185
X050587Y-005185
X047587Y-036435
X047587Y-037435
X048587Y-036435
X048587Y-037435
X049587Y-036435
X049587Y-037435
X050587Y-036435
X050587Y-037435
X036837Y-011685
X036837Y-012685
X036837Y-013685
X036837Y-014685
X036837Y-015685
X036837Y-016685
X036837Y-017685
X036837Y-018685
X039837Y-011685
X039837Y-012685
X039837Y-013685
X039837Y-014685
X039837Y-015685
X039837Y-016685
X039837Y-017685
X039837Y-018685
X005837Y-011435
X005837Y-012435
X005837Y-013435
X005837Y-014435
X005837Y-015435
X005837Y-016435
X005837Y-017435
X008837Y-011435
X008837Y-012435
X008837Y-013435
X008837Y-014435
X008837Y-015435
X008837Y-016435
X008837Y-017435
X021337Y-015435
X021337Y-016435
X022337Y-015435
X022337Y-016435
X023337Y-015435
X023337Y-016435
X024337Y-015435
X024337Y-016435
X047587Y-029685
X047587Y-030685
X048587Y-029685
X048587Y-030685
X049587Y-029685
X049587Y-030685
X050587Y-029685
X050587Y-030685
X043337Y-036435
X043337Y-037435
X044337Y-036435
X044337Y-037435
X045337Y-036435
X045337Y-037435
X046337Y-036435
X046337Y-037435
X054337Y-008685
X054337Y-009685
X055337Y-008685
X055337Y-009685
X056337Y-008685
X056337Y-009685
X057337Y-008685
X057337Y-009685
X058587Y-025185
X058587Y-026185
X059587Y-025185
X059587Y-026185
X060587Y-025185
X060587Y-026185
X061587Y-025185
X061587Y-026185
X005837Y-009435
X008837Y-009435
X003712Y-001060
X003712Y-001847
X017087Y-015435
X017087Y-016435
X018087Y-015435
X018087Y-016435
X019087Y-015435
X019087Y-016435
X020087Y-015435
X020087Y-016435
X043337Y-029685
X043337Y-030685
X044337Y-029685
X044337Y-030685
X045337Y-029685
X045337Y-030685
X046337Y-029685
X046337Y-030685
X037368Y-029060
X039337Y-029060
X047587Y-020685
X047587Y-021685
X048587Y-020685
X048587Y-021685
X049587Y-020685
X049587Y-021685
X050587Y-020685
X050587Y-021685
X021337Y-017685
X021337Y-018685
X022337Y-017685
X022337Y-018685
X023337Y-017685
X023337Y-018685
X024337Y-017685
X024337Y-018685
X032337Y-008685
X032337Y-009685
X033337Y-008685
X033337Y-009685
X034337Y-008685
X034337Y-009685
X035337Y-008685
X035337Y-009685
X043337Y-022935
X043337Y-023935
X044337Y-022935
X044337Y-023935
X045337Y-022935
X045337Y-023935
X046337Y-022935
X046337Y-023935
X017087Y-029685
X017087Y-030685
X018087Y-029685
X018087Y-030685
X019087Y-029685
X019087Y-030685
X020087Y-029685
X020087Y-030685
X047587Y-006435
X047587Y-007435
X048587Y-006435
X048587Y-007435
X049587Y-006435
X049587Y-007435
X050587Y-006435
X050587Y-007435
X032337Y-001935
X032337Y-002935
X033337Y-001935
X033337Y-002935
X034337Y-001935
X034337Y-002935
X035337Y-001935
X035337Y-002935
X028087Y-008685
X028087Y-009685
X029087Y-008685
X029087Y-009685
X030087Y-008685
X030087Y-009685
X031087Y-008685
X031087Y-009685
X032337Y-029685
X032337Y-030685
X033337Y-029685
X033337Y-030685
X034337Y-029685
X034337Y-030685
X035337Y-029685
X035337Y-030685
X047587Y-025185
X047587Y-026185
X048587Y-025185
X048587Y-026185
X049587Y-025185
X049587Y-026185
X050587Y-025185
X050587Y-026185
X054337Y-010935
X054337Y-011935
X055337Y-010935
X055337Y-011935
X056337Y-010935
X056337Y-011935
X057337Y-010935
X057337Y-011935
X058587Y-027435
X058587Y-028435
X059587Y-027435
X059587Y-028435
X060587Y-027435
X060587Y-028435
X061587Y-027435
X061587Y-028435
X036837Y-020685
X036837Y-021685
X036837Y-022685
X036837Y-023685
X036837Y-024685
X036837Y-025685
X036837Y-026685
X036837Y-027685
X039837Y-020685
X039837Y-021685
X039837Y-022685
X039837Y-023685
X039837Y-024685
X039837Y-025685
X039837Y-026685
X039837Y-027685
X017212Y-038685
X018212Y-038685
X019212Y-038685
X020212Y-038685
X021212Y-038685
X022212Y-038685
X023212Y-038685
X024212Y-038685
X025212Y-038685
X043337Y-006435
X043337Y-007435
X044337Y-006435
X044337Y-007435
X045337Y-006435
X045337Y-007435
X046337Y-006435
X046337Y-007435
X028087Y-001935
X028087Y-002935
X029087Y-001935
X029087Y-002935
X030087Y-001935
X030087Y-002935
X031087Y-001935
X031087Y-002935
X028087Y-029685
X028087Y-030685
X029087Y-029685
X029087Y-030685
X030087Y-029685
X030087Y-030685
X031087Y-029685
X031087Y-030685
X028087Y-036435
X028087Y-037435
X029087Y-036435
X029087Y-037435
X030087Y-036435
X030087Y-037435
X031087Y-036435
X031087Y-037435
X043337Y-015435
X043337Y-016435
X044337Y-015435
X044337Y-016435
X045337Y-015435
X045337Y-016435
X046337Y-015435
X046337Y-016435
X047587Y-034185
X047587Y-035185
X048587Y-034185
X048587Y-035185
X049587Y-034185
X049587Y-035185
X050587Y-034185
X050587Y-035185
X054337Y-004185
X054337Y-005185
X055337Y-004185
X055337Y-005185
X056337Y-004185
X056337Y-005185
X057337Y-004185
X057337Y-005185
X058587Y-029685
X058587Y-030685
X059587Y-029685
X059587Y-030685
X060587Y-029685
X060587Y-030685
X061587Y-029685
X061587Y-030685
X005837Y-028435
X005837Y-029435
X005837Y-030435
X005837Y-031435
X005837Y-032435
X005837Y-033435
X005837Y-034435
X005837Y-035435
X005837Y-036435
X005837Y-037435
X008837Y-028435
X008837Y-029435
X008837Y-030435
X008837Y-031435
X008837Y-032435
X008837Y-033435
X008837Y-034435
X008837Y-035435
X008837Y-036435
X008837Y-037435
X032337Y-025185
X032337Y-026185
X033337Y-025185
X033337Y-026185
X034337Y-025185
X034337Y-026185
X035337Y-025185
X035337Y-026185
X054337Y-025185
X054337Y-026185
X055337Y-025185
X055337Y-026185
X056337Y-025185
X056337Y-026185
X057337Y-025185
X057337Y-026185
X036837Y-030435
X036837Y-031435
X036837Y-032435
X036837Y-033435
X036837Y-034435
X036837Y-035435
X036837Y-036435
X036837Y-037435
X039837Y-030435
X039837Y-031435
X039837Y-032435
X039837Y-033435
X039837Y-034435
X039837Y-035435
X039837Y-036435
X039837Y-037435
X021337Y-013185
X021337Y-014185
X022337Y-013185
X022337Y-014185
X023337Y-013185
X023337Y-014185
X024337Y-013185
X024337Y-014185
X047587Y-017685
X047587Y-018685
X048587Y-017685
X048587Y-018685
X049587Y-017685
X049587Y-018685
X050587Y-017685
X050587Y-018685
X047587Y-027435
X047587Y-028435
X048587Y-027435
X048587Y-028435
X049587Y-027435
X049587Y-028435
X050587Y-027435
X050587Y-028435
X043337Y-034185
X043337Y-035185
X044337Y-034185
X044337Y-035185
X045337Y-034185
X045337Y-035185
X046337Y-034185
X046337Y-035185
X036837Y-001935
X036837Y-002935
X036837Y-003935
X036837Y-004935
X036837Y-005935
X036837Y-006935
X036837Y-007935
X036837Y-008935
X039837Y-001935
X039837Y-002935
X039837Y-003935
X039837Y-004935
X039837Y-005935
X039837Y-006935
X039837Y-007935
X039837Y-008935
X017087Y-013185
X017087Y-014185
X018087Y-013185
X018087Y-014185
X019087Y-013185
X019087Y-014185
X020087Y-013185
X020087Y-014185
X032337Y-013185
X032337Y-014185
X033337Y-013185
X033337Y-014185
X034337Y-013185
X034337Y-014185
X035337Y-013185
X035337Y-014185
X043337Y-017685
X043337Y-018685
X044337Y-017685
X044337Y-018685
X045337Y-017685
X045337Y-018685
X046337Y-017685
X046337Y-018685
X043337Y-027435
X043337Y-028435
X044337Y-027435
X044337Y-028435
X045337Y-027435
X045337Y-028435
X046337Y-027435
X046337Y-028435
X058587Y-022935
X058587Y-023935
X059587Y-022935
X059587Y-023935
X060587Y-022935
X060587Y-023935
X061587Y-022935
X061587Y-023935
X032337Y-006435
X032337Y-007435
X033337Y-006435
X033337Y-007435
X034337Y-006435
X034337Y-007435
X035337Y-006435
X035337Y-007435
X028087Y-013185
X028087Y-014185
X029087Y-013185
X029087Y-014185
X030087Y-013185
X030087Y-014185
X031087Y-013185
X031087Y-014185
X032337Y-034185
X032337Y-035185
X033337Y-034185
X033337Y-035185
X034337Y-034185
X034337Y-035185
X035337Y-034185
X035337Y-035185
X054337Y-027435
X054337Y-028435
X055337Y-027435
X055337Y-028435
X056337Y-027435
X056337Y-028435
X057337Y-027435
X057337Y-028435
X017087Y-001935
X017087Y-002935
X018087Y-001935
X018087Y-002935
X019087Y-001935
X019087Y-002935
X020087Y-001935
X020087Y-002935
X021337Y-006435
X021337Y-007435
X022337Y-006435
X022337Y-007435
X023337Y-006435
X023337Y-007435
X024337Y-006435
X024337Y-007435
X028087Y-006435
X028087Y-007435
X029087Y-006435
X029087Y-007435
X030087Y-006435
X030087Y-007435
X031087Y-006435
X031087Y-007435
X032337Y-027435
X032337Y-028435
X033337Y-027435
X033337Y-028435
X034337Y-027435
X034337Y-028435
X035337Y-027435
X035337Y-028435
X010587Y-004935
X010587Y-005935
X010587Y-006935
X010587Y-007935
X010587Y-008935
X010587Y-009935
X010587Y-010935
X010587Y-011935
X013587Y-004935
X013587Y-005935
X013587Y-006935
X013587Y-007935
X013587Y-008935
X013587Y-009935
X013587Y-010935
X013587Y-011935
X021337Y-029685
X021337Y-030685
X022337Y-029685
X022337Y-030685
X023337Y-029685
X023337Y-030685
X024337Y-029685
X024337Y-030685
X047587Y-010935
X047587Y-011935
X048587Y-010935
X048587Y-011935
X049587Y-010935
X049587Y-011935
X050587Y-010935
X050587Y-011935
X043337Y-010935
X043337Y-011935
X044337Y-010935
X044337Y-011935
X045337Y-010935
X045337Y-011935
X046337Y-010935
X046337Y-011935
X054337Y-017685
X054337Y-018685
X055337Y-017685
X055337Y-018685
X056337Y-017685
X056337Y-018685
X057337Y-017685
X057337Y-018685
X058587Y-034185
X058587Y-035185
X059587Y-034185
X059587Y-035185
X060587Y-034185
X060587Y-035185
X061587Y-034185
X061587Y-035185
X005837Y-019935
X005837Y-020935
X005837Y-021935
X005837Y-022935
X005837Y-023935
X005837Y-024935
X005837Y-025935
X005837Y-026935
X008837Y-019935
X008837Y-020935
X008837Y-021935
X008837Y-022935
X008837Y-023935
X008837Y-024935
X008837Y-025935
X008837Y-026935
X021337Y-022935
X021337Y-023935
X022337Y-022935
X022337Y-023935
X023337Y-022935
X023337Y-023935
X024337Y-022935
X024337Y-023935
X032337Y-015435
X032337Y-016435
X033337Y-015435
X033337Y-016435
X034337Y-015435
X034337Y-016435
X035337Y-015435
X035337Y-016435
X028087Y-034185
X028087Y-035185
X029087Y-034185
X029087Y-035185
X030087Y-034185
X030087Y-035185
X031087Y-034185
X031087Y-035185
X047587Y-013185
X047587Y-014185
X048587Y-013185
X048587Y-014185
X049587Y-013185
X049587Y-014185
X050587Y-013185
X050587Y-014185
X058587Y-001935
X058587Y-002935
X059587Y-001935
X059587Y-002935
X060587Y-001935
X060587Y-002935
X061587Y-001935
X061587Y-002935
X054337Y-029685
X054337Y-030685
X055337Y-029685
X055337Y-030685
X056337Y-029685
X056337Y-030685
X057337Y-029685
X057337Y-030685
X037368Y-010310
X039337Y-010310
T5
X002087Y-004185
X002087Y-005185
X002087Y-006185
X002087Y-007185
X002087Y-008185
X002087Y-009185
X002087Y-010185
X002087Y-011185
X002087Y-012185
X002087Y-013185
X002087Y-014185
X002087Y-015185
X002087Y-016185
X002087Y-017185
X002087Y-018185
X002087Y-019185
X002087Y-020185
X002087Y-021185
X002087Y-022185
X002087Y-023185
X002087Y-024185
X002087Y-025185
X002087Y-026185
X002087Y-027185
X002087Y-028185
X002087Y-029185
X002087Y-030185
X002087Y-031185
X002087Y-032185
X002087Y-033185
X002087Y-034185
X002087Y-035185
X003087Y-004185
X003087Y-005185
X003087Y-006185
X003087Y-007185
X003087Y-008185
X003087Y-009185
X003087Y-010185
X003087Y-011185
X003087Y-012185
X003087Y-013185
X003087Y-014185
X003087Y-015185
X003087Y-016185
X003087Y-017185
X003087Y-018185
X003087Y-019185
X003087Y-020185
X003087Y-021185
X003087Y-022185
X003087Y-023185
X003087Y-024185
X003087Y-025185
X003087Y-026185
X003087Y-027185
X003087Y-028185
X003087Y-029185
X003087Y-030185
X003087Y-031185
X003087Y-032185
X003087Y-033185
X003087Y-034185
X003087Y-035185
X004087Y-004185
X004087Y-005185
X004087Y-006185
X004087Y-007185
X004087Y-008185
X004087Y-009185
X004087Y-010185
X004087Y-011185
X004087Y-012185
X004087Y-013185
X004087Y-014185
X004087Y-015185
X004087Y-016185
X004087Y-017185
X004087Y-018185
X004087Y-019185
X004087Y-020185
X004087Y-021185
X004087Y-022185
X004087Y-023185
X004087Y-024185
X004087Y-025185
X004087Y-026185
X004087Y-027185
X004087Y-028185
X004087Y-029185
X004087Y-030185
X004087Y-031185
X004087Y-032185
X004087Y-033185
X004087Y-034185
X004087Y-035185
T6
X001087Y-002185
X001087Y-037185
T0
M30
