M48
;DRILL file {KiCad 5.0.0+dfsg1-2} date Fri Feb  1 22:47:42 2019
;FORMAT={2:4/ absolute / inch / keep zeros}
FMAT,2
INCH,TZ
T1C0.0079
T2C0.0118
T3C0.0276
T4C0.0315
T5C0.0315
T6C0.0433
T7C0.1142
%
G90
G05
M72
T1
X003250Y-009000
X003500Y-006000
X003750Y-008000
X004000Y-007000
X005750Y-028750
X005750Y-030500
X005750Y-034750
X006000Y-024750
X006000Y-035000
X006500Y-010000
X007000Y-011000
X008750Y-008750
X008750Y-039000
X009000Y-008000
X009250Y-006000
X009500Y-004000
X009750Y-007000
X010250Y-030750
X010250Y-031000
X010250Y-035250
X013250Y-027000
X013250Y-036750
X014250Y-008750
X014500Y-008000
X014750Y-006000
X014750Y-032750
X015000Y-004000
X015000Y-027250
X015000Y-031250
X015250Y-007000
X017500Y-011000
X019250Y-038000
X019500Y-034500
X020000Y-008000
X020250Y-004000
X020750Y-006000
X021000Y-007000
X022250Y-011750
X022250Y-025000
X023000Y-039500
X023750Y-012000
X023750Y-039250
X025500Y-009000
X025500Y-012000
X025750Y-004000
X026000Y-006000
X026500Y-007000
X027000Y-013250
X028750Y-029000
X028750Y-029250
X028750Y-030250
X028750Y-038500
X028750Y-038750
X029000Y-028750
X029000Y-033750
X029250Y-031250
X030750Y-038500
X031000Y-018000
X031000Y-032250
X031250Y-011750
X031250Y-016000
X031250Y-027500
X031500Y-014500
X031500Y-026500
X031750Y-006000
X031750Y-038750
X032000Y-007000
X032250Y-038750
X032500Y-034000
X032500Y-038750
X032750Y-038750
X033000Y-012000
X033000Y-029250
X033500Y-012000
X033750Y-029250
X034000Y-012500
X034250Y-012250
X034750Y-019750
X035500Y-036750
X035500Y-037250
X036250Y-010750
X036250Y-019750
X036250Y-027000
X036500Y-014000
X036500Y-016000
X037000Y-018000
X039000Y-029000
X039000Y-032250
X039250Y-020250
X039250Y-028750
X039250Y-034000
X039500Y-014500
X039500Y-018500
X039500Y-022000
X039500Y-037250
X039750Y-024000
X039750Y-037250
X040000Y-035500
X040250Y-036750
X040750Y-037750
X041750Y-021250
X041750Y-022750
X041750Y-033500
X042000Y-033500
X042250Y-016750
X042250Y-031250
X042250Y-038250
X042500Y-017500
X042500Y-036000
X042750Y-017750
X043000Y-032500
X043250Y-038750
X044750Y-018250
X044750Y-030500
X045000Y-025500
X045000Y-027000
X045000Y-031250
X045250Y-026750
X045250Y-029000
X045500Y-028750
X045750Y-012000
X045750Y-021000
X045750Y-028750
X046250Y-021000
X047500Y-021500
X047500Y-024000
X047500Y-032500
X047750Y-018000
X047750Y-021250
X047750Y-031000
X048000Y-033000
X048250Y-035000
X048750Y-024000
X048750Y-034750
X049500Y-012250
X049500Y-020750
X049500Y-029000
X050250Y-015000
X050250Y-021000
X050500Y-015500
X050500Y-016000
X050500Y-026000
X050750Y-026500
X051000Y-024500
X051000Y-034500
X051250Y-026250
X052750Y-032500
X053000Y-016750
X053000Y-024000
X053000Y-032000
X053250Y-028750
X053500Y-029000
X053500Y-032000
X053750Y-023000
X053750Y-027000
X054000Y-024500
X054000Y-031000
X054250Y-023500
X055750Y-011750
X056250Y-011000
X056500Y-007000
X056500Y-012500
X056750Y-012000
X057000Y-010000
X057250Y-006750
X057250Y-008750
X057500Y-030000
X058000Y-005000
X058000Y-011500
X058250Y-007000
X058250Y-009500
X058250Y-017500
X058500Y-009250
X058500Y-012250
X058750Y-022500
X059000Y-013500
T2
X046500Y-010500
X057750Y-007250
T3
X022500Y-020500
X022500Y-022500
X009500Y-012500
X009500Y-014500
X005500Y-012500
X005500Y-014500
X017500Y-020500
X017500Y-022500
X006500Y-020500
X006500Y-022500
X012500Y-020500
X012500Y-022500
X016500Y-012500
X016500Y-014500
X020500Y-020500
X020500Y-022500
X008500Y-012500
X008500Y-014500
X015500Y-020500
X015500Y-022500
X007500Y-020500
X007500Y-022500
X012500Y-012500
X012500Y-014500
X004500Y-020500
X004500Y-022500
X021500Y-020500
X021500Y-022500
X016500Y-020500
X016500Y-022500
X025500Y-012500
X025500Y-014500
X007500Y-012500
X007500Y-014500
X011500Y-012500
X011500Y-014500
X003500Y-020500
X003500Y-022500
X024500Y-020500
X024500Y-022500
X024500Y-012500
X024500Y-014500
X006500Y-012500
X006500Y-014500
X025500Y-020500
X025500Y-022500
X020500Y-012500
X020500Y-014500
X027500Y-020500
X027500Y-022500
X009500Y-020500
X009500Y-022500
X013500Y-020500
X013500Y-022500
X015500Y-012500
X015500Y-014500
X023500Y-020500
X023500Y-022500
X014500Y-012500
X014500Y-014500
X004500Y-012500
X004500Y-014500
X021500Y-012500
X021500Y-014500
X018500Y-020500
X018500Y-022500
X027500Y-012500
X027500Y-014500
X013500Y-012500
X013500Y-014500
X014500Y-020500
X014500Y-022500
X002500Y-020500
X002500Y-022500
X023500Y-012500
X023500Y-014500
X026500Y-012500
X026500Y-014500
X002500Y-012500
X002500Y-014500
X018500Y-012500
X018500Y-014500
X008500Y-020500
X008500Y-022500
X003500Y-012500
X003500Y-014500
X022500Y-012500
X022500Y-014500
X026500Y-020500
X026500Y-022500
X005500Y-020500
X005500Y-022500
X017500Y-012500
X017500Y-014500
X011500Y-020500
X011500Y-022500
T4
X038500Y-030000
X038500Y-031000
X038500Y-032000
X038500Y-033000
X038500Y-034000
X038500Y-035000
X038500Y-036000
X038500Y-037000
X038500Y-038000
X035500Y-013000
X035500Y-014000
X035500Y-015000
X035500Y-016000
X035500Y-017000
X035500Y-018000
X035500Y-019000
X038500Y-013000
X038500Y-014000
X038500Y-015000
X038500Y-016000
X038500Y-017000
X038500Y-018000
X038500Y-019000
X041000Y-022000
X041000Y-023000
X041000Y-024000
X041000Y-025000
X041000Y-026000
X041000Y-027000
X041000Y-028000
X044000Y-022000
X044000Y-023000
X044000Y-024000
X044000Y-025000
X044000Y-026000
X044000Y-027000
X044000Y-028000
X030000Y-002000
X030000Y-003000
X030000Y-004000
X030000Y-005000
X030000Y-006000
X030000Y-007000
X030000Y-008000
X030000Y-009000
X030000Y-010000
X030000Y-011000
X033000Y-002000
X033000Y-003000
X033000Y-004000
X033000Y-005000
X033000Y-006000
X033000Y-007000
X033000Y-008000
X033000Y-009000
X033000Y-010000
X033000Y-011000
X015500Y-015500
X015500Y-016500
X015500Y-017500
X015500Y-018500
X015500Y-019500
X018500Y-015500
X018500Y-016500
X018500Y-017500
X018500Y-018500
X018500Y-019500
X013500Y-002000
X013500Y-003000
X013500Y-004000
X013500Y-005000
X013500Y-006000
X013500Y-007000
X013500Y-008000
X013500Y-009000
X013500Y-010000
X013500Y-011000
X016500Y-002000
X016500Y-003000
X016500Y-004000
X016500Y-005000
X016500Y-006000
X016500Y-007000
X016500Y-008000
X016500Y-009000
X016500Y-010000
X016500Y-011000
X052000Y-002000
X052000Y-003000
X052000Y-004000
X052000Y-005000
X052000Y-006000
X052000Y-007000
X052000Y-008000
X055000Y-002000
X055000Y-003000
X055000Y-004000
X055000Y-005000
X055000Y-006000
X055000Y-007000
X055000Y-008000
X002500Y-002000
X002500Y-003000
X002500Y-004000
X002500Y-005000
X002500Y-006000
X002500Y-007000
X002500Y-008000
X002500Y-009000
X002500Y-010000
X002500Y-011000
X005500Y-002000
X005500Y-003000
X005500Y-004000
X005500Y-005000
X005500Y-006000
X005500Y-007000
X005500Y-008000
X005500Y-009000
X005500Y-010000
X005500Y-011000
X024500Y-015500
X024500Y-016500
X024500Y-017500
X024500Y-018500
X024500Y-019500
X027500Y-015500
X027500Y-016500
X027500Y-017500
X027500Y-018500
X027500Y-019500
X031500Y-030000
X031500Y-031000
X031500Y-032000
X031500Y-033000
X031500Y-034000
X031500Y-035000
X031500Y-036000
X031500Y-037000
X031500Y-038000
X046500Y-013000
X046500Y-014000
X046500Y-015000
X046500Y-016000
X046500Y-017000
X046500Y-018000
X046500Y-019000
X046500Y-020000
X049500Y-013000
X049500Y-014000
X049500Y-015000
X049500Y-016000
X049500Y-017000
X049500Y-018000
X049500Y-019000
X049500Y-020000
X008000Y-002000
X008000Y-003000
X008000Y-004000
X008000Y-005000
X008000Y-006000
X008000Y-007000
X008000Y-008000
X008000Y-009000
X008000Y-010000
X008000Y-011000
X011000Y-002000
X011000Y-003000
X011000Y-004000
X011000Y-005000
X011000Y-006000
X011000Y-007000
X011000Y-008000
X011000Y-009000
X011000Y-010000
X011000Y-011000
X011500Y-015500
X011500Y-016500
X011500Y-017500
X011500Y-018500
X011500Y-019500
X014500Y-015500
X014500Y-016500
X014500Y-017500
X014500Y-018500
X014500Y-019500
X041000Y-030000
X041000Y-031000
X041000Y-032000
X041000Y-033000
X041000Y-034000
X041000Y-035000
X041000Y-036000
X044000Y-030000
X044000Y-031000
X044000Y-032000
X044000Y-033000
X044000Y-034000
X044000Y-035000
X044000Y-036000
X030000Y-013000
X030000Y-014000
X030000Y-015000
X030000Y-016000
X030000Y-017000
X030000Y-018000
X030000Y-019000
X033000Y-013000
X033000Y-014000
X033000Y-015000
X033000Y-016000
X033000Y-017000
X033000Y-018000
X033000Y-019000
X041000Y-002000
X041000Y-003000
X041000Y-004000
X041000Y-005000
X041000Y-006000
X041000Y-007000
X041000Y-008000
X041000Y-009000
X041000Y-010000
X041000Y-011000
X044000Y-002000
X044000Y-003000
X044000Y-004000
X044000Y-005000
X044000Y-006000
X044000Y-007000
X044000Y-008000
X044000Y-009000
X044000Y-010000
X044000Y-011000
X020500Y-015500
X020500Y-016500
X020500Y-017500
X020500Y-018500
X020500Y-019500
X023500Y-015500
X023500Y-016500
X023500Y-017500
X023500Y-018500
X023500Y-019500
X030000Y-030000
X030000Y-031000
X030000Y-032000
X030000Y-033000
X030000Y-034000
X030000Y-035000
X030000Y-036000
X030000Y-037000
X030000Y-038000
X052000Y-030000
X052000Y-031000
X052000Y-032000
X052000Y-033000
X052000Y-034000
X052000Y-035000
X052000Y-036000
X055000Y-030000
X055000Y-031000
X055000Y-032000
X055000Y-033000
X055000Y-034000
X055000Y-035000
X055000Y-036000
X046500Y-030000
X046500Y-031000
X046500Y-032000
X046500Y-033000
X046500Y-034000
X046500Y-035000
X046500Y-036000
X049500Y-030000
X049500Y-031000
X049500Y-032000
X049500Y-033000
X049500Y-034000
X049500Y-035000
X049500Y-036000
X046500Y-022000
X046500Y-023000
X046500Y-024000
X046500Y-025000
X046500Y-026000
X046500Y-027000
X046500Y-028000
X049500Y-022000
X049500Y-023000
X049500Y-024000
X049500Y-025000
X049500Y-026000
X049500Y-027000
X049500Y-028000
X057000Y-014000
X057000Y-017000
X041000Y-013000
X041000Y-014000
X041000Y-015000
X041000Y-016000
X041000Y-017000
X041000Y-018000
X041000Y-019000
X041000Y-020000
X044000Y-013000
X044000Y-014000
X044000Y-015000
X044000Y-016000
X044000Y-017000
X044000Y-018000
X044000Y-019000
X044000Y-020000
X024500Y-002000
X024500Y-003000
X024500Y-004000
X024500Y-005000
X024500Y-006000
X024500Y-007000
X024500Y-008000
X024500Y-009000
X024500Y-010000
X024500Y-011000
X027500Y-002000
X027500Y-003000
X027500Y-004000
X027500Y-005000
X027500Y-006000
X027500Y-007000
X027500Y-008000
X027500Y-009000
X027500Y-010000
X027500Y-011000
X052000Y-022000
X052000Y-023000
X052000Y-024000
X052000Y-025000
X052000Y-026000
X052000Y-027000
X052000Y-028000
X055000Y-022000
X055000Y-023000
X055000Y-024000
X055000Y-025000
X055000Y-026000
X055000Y-027000
X055000Y-028000
X037000Y-030000
X037000Y-031000
X037000Y-032000
X037000Y-033000
X037000Y-034000
X037000Y-035000
X037000Y-036000
X037000Y-037000
X037000Y-038000
X030000Y-022000
X030000Y-023000
X030000Y-024000
X030000Y-025000
X030000Y-026000
X030000Y-027000
X030000Y-028000
X033000Y-022000
X033000Y-023000
X033000Y-024000
X033000Y-025000
X033000Y-026000
X033000Y-027000
X033000Y-028000
X030531Y-020500
X032500Y-020500
X035500Y-002000
X035500Y-003000
X035500Y-004000
X035500Y-005000
X035500Y-006000
X035500Y-007000
X035500Y-008000
X035500Y-009000
X035500Y-010000
X035500Y-011000
X038500Y-002000
X038500Y-003000
X038500Y-004000
X038500Y-005000
X038500Y-006000
X038500Y-007000
X038500Y-008000
X038500Y-009000
X038500Y-010000
X038500Y-011000
X006500Y-015500
X006500Y-016500
X006500Y-017500
X006500Y-018500
X006500Y-019500
X009500Y-015500
X009500Y-016500
X009500Y-017500
X009500Y-018500
X009500Y-019500
X046500Y-002000
X046500Y-003000
X046500Y-004000
X046500Y-005000
X046500Y-006000
X046500Y-007000
X046500Y-008000
X049500Y-002000
X049500Y-003000
X049500Y-004000
X049500Y-005000
X049500Y-006000
X049500Y-007000
X049500Y-008000
X057000Y-002000
X057000Y-002787
X052000Y-013000
X052000Y-014000
X052000Y-015000
X052000Y-016000
X052000Y-017000
X052000Y-018000
X052000Y-019000
X052000Y-020000
X055000Y-013000
X055000Y-014000
X055000Y-015000
X055000Y-016000
X055000Y-017000
X055000Y-018000
X055000Y-019000
X055000Y-020000
X033500Y-030000
X033500Y-031000
X033500Y-032000
X033500Y-033000
X033500Y-034000
X033500Y-035000
X033500Y-036000
X033500Y-037000
X033500Y-038000
X019000Y-002000
X019000Y-003000
X019000Y-004000
X019000Y-005000
X019000Y-006000
X019000Y-007000
X019000Y-008000
X019000Y-009000
X019000Y-010000
X019000Y-011000
X022000Y-002000
X022000Y-003000
X022000Y-004000
X022000Y-005000
X022000Y-006000
X022000Y-007000
X022000Y-008000
X022000Y-009000
X022000Y-010000
X022000Y-011000
X035500Y-021000
X035500Y-022000
X035500Y-023000
X035500Y-024000
X035500Y-025000
X035500Y-026000
X035500Y-027000
X035500Y-028000
X038500Y-021000
X038500Y-022000
X038500Y-023000
X038500Y-024000
X038500Y-025000
X038500Y-026000
X038500Y-027000
X038500Y-028000
X035000Y-030000
X035000Y-031000
X035000Y-032000
X035000Y-033000
X035000Y-034000
X035000Y-035000
X035000Y-036000
X035000Y-037000
X035000Y-038000
X002500Y-015500
X002500Y-016500
X002500Y-017500
X002500Y-018500
X002500Y-019500
X005500Y-015500
X005500Y-016500
X005500Y-017500
X005500Y-018500
X005500Y-019500
X057000Y-023500
X057000Y-026500
T5
X059500Y-004500
X059500Y-005500
X059500Y-006500
X059500Y-007500
X059500Y-008500
X059500Y-009500
X059500Y-010500
X059500Y-011500
X059500Y-012500
X059500Y-013500
X059500Y-014500
X059500Y-015500
X059500Y-016500
X059500Y-017500
X059500Y-018500
X059500Y-019500
X059500Y-020500
X059500Y-021500
X059500Y-022500
X059500Y-023500
X059500Y-024500
X059500Y-025500
X059500Y-026500
X059500Y-027500
X059500Y-028500
X059500Y-029500
X059500Y-030500
X059500Y-031500
X059500Y-032500
X059500Y-033500
X059500Y-034500
X059500Y-035500
X060500Y-004500
X060500Y-005500
X060500Y-006500
X060500Y-007500
X060500Y-008500
X060500Y-009500
X060500Y-010500
X060500Y-011500
X060500Y-012500
X060500Y-013500
X060500Y-014500
X060500Y-015500
X060500Y-016500
X060500Y-017500
X060500Y-018500
X060500Y-019500
X060500Y-020500
X060500Y-021500
X060500Y-022500
X060500Y-023500
X060500Y-024500
X060500Y-025500
X060500Y-026500
X060500Y-027500
X060500Y-028500
X060500Y-029500
X060500Y-030500
X060500Y-031500
X060500Y-032500
X060500Y-033500
X060500Y-034500
X060500Y-035500
X061500Y-004500
X061500Y-005500
X061500Y-006500
X061500Y-007500
X061500Y-008500
X061500Y-009500
X061500Y-010500
X061500Y-011500
X061500Y-012500
X061500Y-013500
X061500Y-014500
X061500Y-015500
X061500Y-016500
X061500Y-017500
X061500Y-018500
X061500Y-019500
X061500Y-020500
X061500Y-021500
X061500Y-022500
X061500Y-023500
X061500Y-024500
X061500Y-025500
X061500Y-026500
X061500Y-027500
X061500Y-028500
X061500Y-029500
X061500Y-030500
X061500Y-031500
X061500Y-032500
X061500Y-033500
X061500Y-034500
X061500Y-035500
T6
X015965Y-036000
X015965Y-037772
X018524Y-036000
X018524Y-037772
X024941Y-024000
X024941Y-025772
X027500Y-024000
X027500Y-025772
X015965Y-028000
X015965Y-029772
X018524Y-028000
X018524Y-029772
X006988Y-032000
X006988Y-033772
X009547Y-032000
X009547Y-033772
X015965Y-024000
X015965Y-025772
X018524Y-024000
X018524Y-025772
X006988Y-028000
X006988Y-029772
X009547Y-028000
X009547Y-029772
X011476Y-028000
X011476Y-029772
X014035Y-028000
X014035Y-029772
X002500Y-032000
X002500Y-033772
X005059Y-032000
X005059Y-033772
X024941Y-036000
X024941Y-037772
X027500Y-036000
X027500Y-037772
X015965Y-032000
X015965Y-033772
X018524Y-032000
X018524Y-033772
X024941Y-032000
X024941Y-033772
X027500Y-032000
X027500Y-033772
X011476Y-036000
X011476Y-037772
X014035Y-036000
X014035Y-037772
X020453Y-024000
X020453Y-025772
X023012Y-024000
X023012Y-025772
X006988Y-036000
X006988Y-037772
X009547Y-036000
X009547Y-037772
X020453Y-028000
X020453Y-029772
X023012Y-028000
X023012Y-029772
X011476Y-032000
X011476Y-033772
X014035Y-032000
X014035Y-033772
X006988Y-024000
X006988Y-025772
X009547Y-024000
X009547Y-025772
X002500Y-024000
X002500Y-025772
X005059Y-024000
X005059Y-025772
X020453Y-036000
X020453Y-037772
X023012Y-036000
X023012Y-037772
X024941Y-028000
X024941Y-029772
X027500Y-028000
X027500Y-029772
X002500Y-036000
X002500Y-037772
X005059Y-036000
X005059Y-037772
X011476Y-024000
X011476Y-025772
X014035Y-024000
X014035Y-025772
X020453Y-032000
X020453Y-033772
X023012Y-032000
X023012Y-033772
X002500Y-028000
X002500Y-029772
X005059Y-028000
X005059Y-029772
T7
X062500Y-002500
X062500Y-037500
T0
M30
