G04 #@! TF.FileFunction,Soldermask,Bot*
%FSLAX46Y46*%
G04 Gerber Fmt 4.6, Leading zero omitted, Abs format (unit mm)*
G04 Created by KiCad (PCBNEW 4.0.7) date Sat Mar 24 13:18:22 2018*
%MOMM*%
%LPD*%
G01*
G04 APERTURE LIST*
%ADD10C,0.100000*%
%ADD11C,0.150000*%
%ADD12R,2.800000X2.000000*%
%ADD13O,2.800000X2.000000*%
%ADD14C,2.400000*%
%ADD15C,2.000000*%
%ADD16R,2.000000X2.000000*%
%ADD17R,2.200000X2.200000*%
%ADD18C,2.200000*%
%ADD19R,3.900000X3.900000*%
%ADD20C,1.901140*%
%ADD21C,5.400000*%
%ADD22O,2.000000X2.000000*%
%ADD23R,2.100000X2.100000*%
%ADD24O,2.100000X2.100000*%
%ADD25O,2.200000X2.200000*%
G04 APERTURE END LIST*
D10*
D11*
X0Y-100000000D02*
X0Y0D01*
X160000000Y-100000000D02*
X0Y-100000000D01*
X160000000Y0D02*
X160000000Y-100000000D01*
X0Y0D02*
X160000000Y0D01*
D12*
X52860000Y-74130000D03*
D13*
X60480000Y-96990000D03*
X52860000Y-76670000D03*
X60480000Y-94450000D03*
X52860000Y-79210000D03*
X60480000Y-91910000D03*
X52860000Y-81750000D03*
X60480000Y-89370000D03*
X52860000Y-84290000D03*
X60480000Y-86830000D03*
X52860000Y-86830000D03*
X60480000Y-84290000D03*
X52860000Y-89370000D03*
X60480000Y-81750000D03*
X52860000Y-91910000D03*
X60480000Y-79210000D03*
X52860000Y-94450000D03*
X60480000Y-76670000D03*
X52860000Y-96990000D03*
X60480000Y-74130000D03*
D14*
X7775000Y-88790000D03*
X7775000Y-84290000D03*
X14275000Y-88790000D03*
X14275000Y-84290000D03*
D12*
X4600000Y-52540000D03*
D13*
X12220000Y-67780000D03*
X4600000Y-67780000D03*
X12220000Y-52540000D03*
D15*
X104930000Y-69050000D03*
X99930000Y-69050000D03*
X89690000Y-69050000D03*
X84690000Y-69050000D03*
X74450000Y-36030000D03*
X69450000Y-36030000D03*
X89690000Y-3010000D03*
X84690000Y-3010000D03*
X104930000Y-3010000D03*
X99930000Y-3010000D03*
X104930000Y-36030000D03*
X99930000Y-36030000D03*
X89690000Y-36030000D03*
X84690000Y-36030000D03*
D16*
X18570000Y-4280000D03*
D15*
X18570000Y-2280000D03*
D16*
X28730000Y-4280000D03*
D15*
X28730000Y-2280000D03*
X38255000Y-3010000D03*
X43255000Y-3010000D03*
X26190000Y-36665000D03*
X26190000Y-31665000D03*
X59210000Y-69050000D03*
X54210000Y-69050000D03*
D16*
X18570000Y-65875000D03*
D15*
X18570000Y-67875000D03*
X43970000Y-69050000D03*
X38970000Y-69050000D03*
X18570000Y-89370000D03*
X18570000Y-84370000D03*
X74450000Y-69050000D03*
X69450000Y-69050000D03*
X59210000Y-3010000D03*
X54210000Y-3010000D03*
X74450000Y-3010000D03*
X69450000Y-3010000D03*
X59210000Y-36030000D03*
X54210000Y-36030000D03*
X10950000Y-47460000D03*
X5950000Y-47460000D03*
X28730000Y-69050000D03*
X23730000Y-69050000D03*
D17*
X136680000Y-76670000D03*
D18*
X139220000Y-76670000D03*
D17*
X136680000Y-79210000D03*
D18*
X139220000Y-79210000D03*
D17*
X136680000Y-81750000D03*
D18*
X139220000Y-81750000D03*
D17*
X136680000Y-84290000D03*
D18*
X139220000Y-84290000D03*
D17*
X136680000Y-86830000D03*
D18*
X139220000Y-86830000D03*
D17*
X136680000Y-89370000D03*
D18*
X139220000Y-89370000D03*
D17*
X136680000Y-91910000D03*
D18*
X139220000Y-91910000D03*
D17*
X136680000Y-94450000D03*
D18*
X139220000Y-94450000D03*
D17*
X118900000Y-76670000D03*
D18*
X121440000Y-76670000D03*
D17*
X118900000Y-79210000D03*
D18*
X121440000Y-79210000D03*
D17*
X118900000Y-81750000D03*
D18*
X121440000Y-81750000D03*
D17*
X118900000Y-84290000D03*
D18*
X121440000Y-84290000D03*
D17*
X118900000Y-86830000D03*
D18*
X121440000Y-86830000D03*
D17*
X118900000Y-89370000D03*
D18*
X121440000Y-89370000D03*
D17*
X118900000Y-10630000D03*
D18*
X121440000Y-10630000D03*
D17*
X118900000Y-13170000D03*
D18*
X121440000Y-13170000D03*
D17*
X118900000Y-15710000D03*
D18*
X121440000Y-15710000D03*
D17*
X118900000Y-18250000D03*
D18*
X121440000Y-18250000D03*
D17*
X118900000Y-20790000D03*
D18*
X121440000Y-20790000D03*
D17*
X118900000Y-23330000D03*
D18*
X121440000Y-23330000D03*
D17*
X118900000Y-25870000D03*
D18*
X121440000Y-25870000D03*
D17*
X118900000Y-28410000D03*
D18*
X121440000Y-28410000D03*
D17*
X136680000Y-10630000D03*
D18*
X139220000Y-10630000D03*
D17*
X136680000Y-13170000D03*
D18*
X139220000Y-13170000D03*
D17*
X136680000Y-15710000D03*
D18*
X139220000Y-15710000D03*
D17*
X136680000Y-18250000D03*
D18*
X139220000Y-18250000D03*
D17*
X136680000Y-20790000D03*
D18*
X139220000Y-20790000D03*
D17*
X136680000Y-23330000D03*
D18*
X139220000Y-23330000D03*
D17*
X136680000Y-25870000D03*
D18*
X139220000Y-25870000D03*
D17*
X136680000Y-28410000D03*
D18*
X139220000Y-28410000D03*
D17*
X118900000Y-43650000D03*
D18*
X121440000Y-43650000D03*
D17*
X118900000Y-46190000D03*
D18*
X121440000Y-46190000D03*
D17*
X118900000Y-48730000D03*
D18*
X121440000Y-48730000D03*
D17*
X118900000Y-51270000D03*
D18*
X121440000Y-51270000D03*
D17*
X118900000Y-53810000D03*
D18*
X121440000Y-53810000D03*
D17*
X118900000Y-56350000D03*
D18*
X121440000Y-56350000D03*
D17*
X118900000Y-58890000D03*
D18*
X121440000Y-58890000D03*
D17*
X118900000Y-61430000D03*
D18*
X121440000Y-61430000D03*
D19*
X13490000Y-4280000D03*
X7490000Y-4280000D03*
X10490000Y-8980000D03*
D20*
X154460000Y-10630000D03*
X154460000Y-13170000D03*
X154460000Y-18250000D03*
X154460000Y-15710000D03*
X154460000Y-20790000D03*
X154460000Y-23330000D03*
X154460000Y-25870000D03*
X154460000Y-28410000D03*
X154460000Y-30950000D03*
X154460000Y-33490000D03*
X154460000Y-36030000D03*
X154460000Y-38570000D03*
X154460000Y-41110000D03*
X154460000Y-43650000D03*
X154460000Y-46190000D03*
X154460000Y-48730000D03*
X154460000Y-51270000D03*
X154460000Y-53810000D03*
X154460000Y-56350000D03*
X154460000Y-58890000D03*
X154460000Y-61430000D03*
X154460000Y-63970000D03*
X154460000Y-66510000D03*
X154460000Y-69050000D03*
X154460000Y-71590000D03*
X154460000Y-74130000D03*
X154460000Y-76670000D03*
X154460000Y-79210000D03*
X154460000Y-81750000D03*
X154460000Y-84290000D03*
X154460000Y-86830000D03*
X154460000Y-89370000D03*
X151920000Y-89370000D03*
X151920000Y-86830000D03*
X151920000Y-84290000D03*
X151920000Y-81750000D03*
X151920000Y-79210000D03*
X151920000Y-76670000D03*
X151920000Y-74130000D03*
X151920000Y-71590000D03*
X151920000Y-69050000D03*
X151920000Y-66510000D03*
X151920000Y-63970000D03*
X151920000Y-61430000D03*
X151920000Y-58890000D03*
X151920000Y-56350000D03*
X151920000Y-53810000D03*
X151920000Y-51270000D03*
X151920000Y-48730000D03*
X151920000Y-46190000D03*
X151920000Y-43650000D03*
X151920000Y-41110000D03*
X151920000Y-38570000D03*
X151920000Y-36030000D03*
X151920000Y-33490000D03*
X151920000Y-30950000D03*
X151920000Y-28410000D03*
X151920000Y-25870000D03*
X151920000Y-23330000D03*
X151920000Y-20790000D03*
X151920000Y-15710000D03*
X151920000Y-18250000D03*
X151920000Y-13170000D03*
X151920000Y-10630000D03*
X149380000Y-10630000D03*
X149380000Y-13170000D03*
X149380000Y-18250000D03*
X149380000Y-15710000D03*
X149380000Y-20790000D03*
X149380000Y-23330000D03*
X149380000Y-25870000D03*
X149380000Y-28410000D03*
X149380000Y-30950000D03*
X149380000Y-33490000D03*
X149380000Y-36030000D03*
X149380000Y-38570000D03*
X149380000Y-41110000D03*
X149380000Y-43650000D03*
X149380000Y-46190000D03*
X149380000Y-48730000D03*
X149380000Y-51270000D03*
X149380000Y-53810000D03*
X149380000Y-56350000D03*
X149380000Y-58890000D03*
X149380000Y-61430000D03*
X149380000Y-63970000D03*
X149380000Y-66510000D03*
X149380000Y-69050000D03*
X149380000Y-71590000D03*
X149380000Y-74130000D03*
X149380000Y-76670000D03*
X149380000Y-79210000D03*
X149380000Y-81750000D03*
X149380000Y-84290000D03*
X149380000Y-86830000D03*
X149380000Y-89370000D03*
D21*
X157000000Y-94450000D03*
X157000000Y-5550000D03*
D15*
X115090000Y-36030000D03*
D22*
X125250000Y-36030000D03*
D15*
X132870000Y-69050000D03*
D22*
X143030000Y-69050000D03*
D15*
X115090000Y-69050000D03*
D22*
X125250000Y-69050000D03*
D15*
X132870000Y-36030000D03*
D22*
X143030000Y-36030000D03*
D15*
X18570000Y-70955000D03*
D22*
X18570000Y-81115000D03*
D15*
X31270000Y-95720000D03*
D22*
X21110000Y-95720000D03*
D15*
X36350000Y-95720000D03*
D22*
X46510000Y-95720000D03*
D15*
X5870000Y-95720000D03*
D22*
X16030000Y-95720000D03*
D14*
X7775000Y-78630000D03*
X7775000Y-74130000D03*
X14275000Y-78630000D03*
X14275000Y-74130000D03*
D12*
X83340000Y-41110000D03*
D13*
X90960000Y-56350000D03*
X83340000Y-43650000D03*
X90960000Y-53810000D03*
X83340000Y-46190000D03*
X90960000Y-51270000D03*
X83340000Y-48730000D03*
X90960000Y-48730000D03*
X83340000Y-51270000D03*
X90960000Y-46190000D03*
X83340000Y-53810000D03*
X90960000Y-43650000D03*
X83340000Y-56350000D03*
X90960000Y-41110000D03*
D12*
X98580000Y-74130000D03*
D13*
X106200000Y-94450000D03*
X98580000Y-76670000D03*
X106200000Y-91910000D03*
X98580000Y-79210000D03*
X106200000Y-89370000D03*
X98580000Y-81750000D03*
X106200000Y-86830000D03*
X98580000Y-84290000D03*
X106200000Y-84290000D03*
X98580000Y-86830000D03*
X106200000Y-81750000D03*
X98580000Y-89370000D03*
X106200000Y-79210000D03*
X98580000Y-91910000D03*
X106200000Y-76670000D03*
X98580000Y-94450000D03*
X106200000Y-74130000D03*
D12*
X68100000Y-41110000D03*
D13*
X75720000Y-56350000D03*
X68100000Y-43650000D03*
X75720000Y-53810000D03*
X68100000Y-46190000D03*
X75720000Y-51270000D03*
X68100000Y-48730000D03*
X75720000Y-48730000D03*
X68100000Y-51270000D03*
X75720000Y-46190000D03*
X68100000Y-53810000D03*
X75720000Y-43650000D03*
X68100000Y-56350000D03*
X75720000Y-41110000D03*
D12*
X83340000Y-74130000D03*
D13*
X90960000Y-94450000D03*
X83340000Y-76670000D03*
X90960000Y-91910000D03*
X83340000Y-79210000D03*
X90960000Y-89370000D03*
X83340000Y-81750000D03*
X90960000Y-86830000D03*
X83340000Y-84290000D03*
X90960000Y-84290000D03*
X83340000Y-86830000D03*
X90960000Y-81750000D03*
X83340000Y-89370000D03*
X90960000Y-79210000D03*
X83340000Y-91910000D03*
X90960000Y-76670000D03*
X83340000Y-94450000D03*
X90960000Y-74130000D03*
D12*
X83340000Y-8090000D03*
D13*
X90960000Y-28410000D03*
X83340000Y-10630000D03*
X90960000Y-25870000D03*
X83340000Y-13170000D03*
X90960000Y-23330000D03*
X83340000Y-15710000D03*
X90960000Y-20790000D03*
X83340000Y-18250000D03*
X90960000Y-18250000D03*
X83340000Y-20790000D03*
X90960000Y-15710000D03*
X83340000Y-23330000D03*
X90960000Y-13170000D03*
X83340000Y-25870000D03*
X90960000Y-10630000D03*
X83340000Y-28410000D03*
X90960000Y-8090000D03*
D12*
X98580000Y-8090000D03*
D13*
X106200000Y-28410000D03*
X98580000Y-10630000D03*
X106200000Y-25870000D03*
X98580000Y-13170000D03*
X106200000Y-23330000D03*
X98580000Y-15710000D03*
X106200000Y-20790000D03*
X98580000Y-18250000D03*
X106200000Y-18250000D03*
X98580000Y-20790000D03*
X106200000Y-15710000D03*
X98580000Y-23330000D03*
X106200000Y-13170000D03*
X98580000Y-25870000D03*
X106200000Y-10630000D03*
X98580000Y-28410000D03*
X106200000Y-8090000D03*
D12*
X98580000Y-41110000D03*
D13*
X106200000Y-61430000D03*
X98580000Y-43650000D03*
X106200000Y-58890000D03*
X98580000Y-46190000D03*
X106200000Y-56350000D03*
X98580000Y-48730000D03*
X106200000Y-53810000D03*
X98580000Y-51270000D03*
X106200000Y-51270000D03*
X98580000Y-53810000D03*
X106200000Y-48730000D03*
X98580000Y-56350000D03*
X106200000Y-46190000D03*
X98580000Y-58890000D03*
X106200000Y-43650000D03*
X98580000Y-61430000D03*
X106200000Y-41110000D03*
D12*
X37620000Y-74130000D03*
D13*
X45240000Y-89370000D03*
X37620000Y-76670000D03*
X45240000Y-86830000D03*
X37620000Y-79210000D03*
X45240000Y-84290000D03*
X37620000Y-81750000D03*
X45240000Y-81750000D03*
X37620000Y-84290000D03*
X45240000Y-79210000D03*
X37620000Y-86830000D03*
X45240000Y-76670000D03*
X37620000Y-89370000D03*
X45240000Y-74130000D03*
D12*
X68100000Y-74130000D03*
D13*
X75720000Y-96990000D03*
X68100000Y-76670000D03*
X75720000Y-94450000D03*
X68100000Y-79210000D03*
X75720000Y-91910000D03*
X68100000Y-81750000D03*
X75720000Y-89370000D03*
X68100000Y-84290000D03*
X75720000Y-86830000D03*
X68100000Y-86830000D03*
X75720000Y-84290000D03*
X68100000Y-89370000D03*
X75720000Y-81750000D03*
X68100000Y-91910000D03*
X75720000Y-79210000D03*
X68100000Y-94450000D03*
X75720000Y-76670000D03*
X68100000Y-96990000D03*
X75720000Y-74130000D03*
D12*
X52860000Y-8090000D03*
D13*
X60480000Y-30950000D03*
X52860000Y-10630000D03*
X60480000Y-28410000D03*
X52860000Y-13170000D03*
X60480000Y-25870000D03*
X52860000Y-15710000D03*
X60480000Y-23330000D03*
X52860000Y-18250000D03*
X60480000Y-20790000D03*
X52860000Y-20790000D03*
X60480000Y-18250000D03*
X52860000Y-23330000D03*
X60480000Y-15710000D03*
X52860000Y-25870000D03*
X60480000Y-13170000D03*
X52860000Y-28410000D03*
X60480000Y-10630000D03*
X52860000Y-30950000D03*
X60480000Y-8090000D03*
D12*
X68100000Y-8090000D03*
D13*
X75720000Y-30950000D03*
X68100000Y-10630000D03*
X75720000Y-28410000D03*
X68100000Y-13170000D03*
X75720000Y-25870000D03*
X68100000Y-15710000D03*
X75720000Y-23330000D03*
X68100000Y-18250000D03*
X75720000Y-20790000D03*
X68100000Y-20790000D03*
X75720000Y-18250000D03*
X68100000Y-23330000D03*
X75720000Y-15710000D03*
X68100000Y-25870000D03*
X75720000Y-13170000D03*
X68100000Y-28410000D03*
X75720000Y-10630000D03*
X68100000Y-30950000D03*
X75720000Y-8090000D03*
D12*
X30000000Y-8090000D03*
D13*
X45240000Y-56350000D03*
X30000000Y-10630000D03*
X45240000Y-53810000D03*
X30000000Y-13170000D03*
X45240000Y-51270000D03*
X30000000Y-15710000D03*
X45240000Y-48730000D03*
X30000000Y-18250000D03*
X45240000Y-46190000D03*
X30000000Y-20790000D03*
X45240000Y-43650000D03*
X30000000Y-23330000D03*
X45240000Y-41110000D03*
X30000000Y-25870000D03*
X45240000Y-38570000D03*
X30000000Y-28410000D03*
X45240000Y-36030000D03*
X30000000Y-30950000D03*
X45240000Y-33490000D03*
X30000000Y-33490000D03*
X45240000Y-30950000D03*
X30000000Y-36030000D03*
X45240000Y-28410000D03*
X30000000Y-38570000D03*
X45240000Y-25870000D03*
X30000000Y-41110000D03*
X45240000Y-23330000D03*
X30000000Y-43650000D03*
X45240000Y-20790000D03*
X30000000Y-46190000D03*
X45240000Y-18250000D03*
X30000000Y-48730000D03*
X45240000Y-15710000D03*
X30000000Y-51270000D03*
X45240000Y-13170000D03*
X30000000Y-53810000D03*
X45240000Y-10630000D03*
X30000000Y-56350000D03*
X45240000Y-8090000D03*
D12*
X52860000Y-41110000D03*
D13*
X60480000Y-63970000D03*
X52860000Y-43650000D03*
X60480000Y-61430000D03*
X52860000Y-46190000D03*
X60480000Y-58890000D03*
X52860000Y-48730000D03*
X60480000Y-56350000D03*
X52860000Y-51270000D03*
X60480000Y-53810000D03*
X52860000Y-53810000D03*
X60480000Y-51270000D03*
X52860000Y-56350000D03*
X60480000Y-48730000D03*
X52860000Y-58890000D03*
X60480000Y-46190000D03*
X52860000Y-61430000D03*
X60480000Y-43650000D03*
X52860000Y-63970000D03*
X60480000Y-41110000D03*
D12*
X22380000Y-74130000D03*
D13*
X30000000Y-89370000D03*
X22380000Y-76670000D03*
X30000000Y-86830000D03*
X22380000Y-79210000D03*
X30000000Y-84290000D03*
X22380000Y-81750000D03*
X30000000Y-81750000D03*
X22380000Y-84290000D03*
X30000000Y-79210000D03*
X22380000Y-86830000D03*
X30000000Y-76670000D03*
X22380000Y-89370000D03*
X30000000Y-74130000D03*
D23*
X35080000Y-63335000D03*
D24*
X37620000Y-63335000D03*
X40160000Y-63335000D03*
D16*
X143030000Y-74130000D03*
D22*
X143030000Y-76670000D03*
X143030000Y-79210000D03*
X143030000Y-81750000D03*
X143030000Y-84290000D03*
X143030000Y-86830000D03*
X143030000Y-89370000D03*
X143030000Y-91910000D03*
X143030000Y-94450000D03*
D16*
X125250000Y-74130000D03*
D22*
X125250000Y-76670000D03*
X125250000Y-79210000D03*
X125250000Y-81750000D03*
X125250000Y-84290000D03*
X125250000Y-86830000D03*
X125250000Y-89370000D03*
X125250000Y-91910000D03*
X125250000Y-94450000D03*
D16*
X125250000Y-8090000D03*
D22*
X125250000Y-10630000D03*
X125250000Y-13170000D03*
X125250000Y-15710000D03*
X125250000Y-18250000D03*
X125250000Y-20790000D03*
X125250000Y-23330000D03*
X125250000Y-25870000D03*
X125250000Y-28410000D03*
D16*
X143030000Y-8090000D03*
D22*
X143030000Y-10630000D03*
X143030000Y-13170000D03*
X143030000Y-15710000D03*
X143030000Y-18250000D03*
X143030000Y-20790000D03*
X143030000Y-23330000D03*
X143030000Y-25870000D03*
X143030000Y-28410000D03*
D16*
X125250000Y-41110000D03*
D22*
X125250000Y-43650000D03*
X125250000Y-46190000D03*
X125250000Y-48730000D03*
X125250000Y-51270000D03*
X125250000Y-53810000D03*
X125250000Y-56350000D03*
X125250000Y-58890000D03*
X125250000Y-61430000D03*
D16*
X139220000Y-41110000D03*
D22*
X139220000Y-43650000D03*
X139220000Y-46190000D03*
X139220000Y-48730000D03*
X139220000Y-51270000D03*
X139220000Y-53810000D03*
X139220000Y-56350000D03*
X139220000Y-58890000D03*
X139220000Y-61430000D03*
D16*
X131600000Y-41110000D03*
D22*
X131600000Y-43650000D03*
X131600000Y-46190000D03*
X131600000Y-48730000D03*
X131600000Y-51270000D03*
X131600000Y-53810000D03*
X131600000Y-56350000D03*
X131600000Y-58890000D03*
X131600000Y-61430000D03*
D16*
X135410000Y-41110000D03*
D22*
X135410000Y-43650000D03*
X135410000Y-46190000D03*
X135410000Y-48730000D03*
X135410000Y-51270000D03*
X135410000Y-53810000D03*
X135410000Y-56350000D03*
X135410000Y-58890000D03*
X135410000Y-61430000D03*
D16*
X143030000Y-41110000D03*
D22*
X143030000Y-43650000D03*
X143030000Y-46190000D03*
X143030000Y-48730000D03*
X143030000Y-51270000D03*
X143030000Y-53810000D03*
X143030000Y-56350000D03*
X143030000Y-58890000D03*
X143030000Y-61430000D03*
D23*
X23650000Y-6820000D03*
D24*
X23650000Y-4280000D03*
D17*
X118900000Y-94450000D03*
D18*
X121440000Y-94450000D03*
D16*
X112550000Y-4280000D03*
D15*
X112550000Y-2280000D03*
D16*
X18570000Y-11900000D03*
D22*
X18570000Y-14440000D03*
X18570000Y-16980000D03*
X18570000Y-19520000D03*
X18570000Y-22060000D03*
X18570000Y-24600000D03*
X18570000Y-27140000D03*
X18570000Y-29680000D03*
X18570000Y-32220000D03*
D16*
X22380000Y-11900000D03*
D22*
X22380000Y-14440000D03*
X22380000Y-16980000D03*
X22380000Y-19520000D03*
X22380000Y-22060000D03*
X22380000Y-24600000D03*
X22380000Y-27140000D03*
X22380000Y-29680000D03*
X22380000Y-32220000D03*
D16*
X18570000Y-36030000D03*
D22*
X18570000Y-38570000D03*
X18570000Y-41110000D03*
X18570000Y-43650000D03*
X18570000Y-46190000D03*
X18570000Y-48730000D03*
X18570000Y-51270000D03*
X18570000Y-53810000D03*
X18570000Y-56350000D03*
D16*
X22380000Y-36030000D03*
D22*
X22380000Y-38570000D03*
X22380000Y-41110000D03*
X22380000Y-43650000D03*
X22380000Y-46190000D03*
X22380000Y-48730000D03*
X22380000Y-51270000D03*
X22380000Y-53810000D03*
X22380000Y-56350000D03*
D21*
X8410000Y-31100000D03*
D17*
X10950000Y-14440000D03*
D25*
X8410000Y-14440000D03*
X5870000Y-14440000D03*
D23*
X129060000Y-5550000D03*
D24*
X129060000Y-8090000D03*
D15*
X64290000Y-86830000D03*
D22*
X64290000Y-96990000D03*
M02*
