M48
;DRILL file {KiCad 4.0.7} date Sat Mar 24 13:18:40 2018
;FORMAT={2:4/ absolute / inch / keep zeros}
FMAT,2
INCH,TZ
T1C0.008
T2C0.012
T3C0.031
T4C0.032
T5C0.035
T6C0.039
T7C0.043
T8C0.114
T9C0.138
%
G90
G05
M72
T1
X010061Y-002685
X010061Y-007185
X010561Y-003685
X010561Y-006185
X010561Y-007185
X010561Y-011935
X010811Y-006185
X010811Y-011185
X011061Y-010185
X012811Y-009185
X012811Y-020685
X013311Y-010185
X013311Y-019685
X013311Y-033685
X013561Y-014185
X013561Y-018685
X013811Y-012435
X014061Y-028185
X014811Y-008185
X015811Y-034185
X015811Y-037185
X016061Y-029185
X016061Y-036935
X016561Y-017185
X016561Y-028685
X016561Y-035935
X016811Y-015185
X016811Y-032185
X017061Y-024185
X017811Y-027435
X018561Y-006685
X018561Y-007935
X018561Y-009185
X018561Y-012435
X018561Y-016435
X018561Y-017435
X018561Y-019185
X018561Y-023435
X018561Y-025935
X018811Y-002435
X018811Y-007185
X018811Y-008185
X018811Y-011185
X018811Y-015685
X019061Y-004435
X019061Y-014685
X019061Y-019185
X019061Y-024435
X019061Y-034685
X019311Y-006185
X019311Y-012185
X019311Y-012685
X019311Y-028185
X019561Y-004685
X019561Y-011185
X019561Y-011685
X019811Y-005435
X019811Y-010435
X019811Y-010685
X019811Y-020185
X019811Y-027935
X020061Y-003435
X020061Y-009685
X020061Y-009935
X020061Y-028185
X020311Y-035685
X021811Y-014935
X021811Y-030185
X022061Y-007185
X022061Y-013685
X022061Y-015185
X022061Y-036185
X022311Y-005185
X022311Y-008435
X022311Y-011185
X022311Y-012935
X022311Y-016685
X022561Y-002435
X022561Y-008185
X022561Y-009185
X022561Y-013435
X022561Y-018685
X022811Y-004185
X022811Y-005185
X022811Y-008685
X022811Y-010185
X022811Y-017685
X024811Y-015435
X024811Y-018185
X024811Y-029185
X024811Y-033185
X025061Y-015685
X025061Y-019185
X025061Y-019685
X025311Y-017435
X025311Y-020185
X025311Y-022685
X025561Y-005435
X025561Y-009185
X025561Y-026435
X025811Y-002435
X025811Y-007185
X025811Y-021685
X026061Y-002685
X026061Y-009685
X026061Y-011185
X026061Y-018435
X027811Y-026685
X027811Y-035185
X028061Y-005185
X028061Y-014685
X028061Y-025935
X028061Y-037185
X028311Y-007185
X028311Y-012685
X028311Y-018685
X028311Y-021185
X028311Y-026185
X028561Y-009185
X028561Y-011435
X028561Y-020685
X028811Y-017185
X028811Y-029685
X030561Y-007685
X030561Y-030435
X030811Y-006685
X030811Y-009185
X031061Y-006185
X031061Y-009685
X031061Y-012185
X031311Y-009185
X031311Y-013685
X031311Y-018685
X031561Y-007185
X031561Y-012935
X031561Y-035185
X031811Y-008185
X031811Y-013435
X031811Y-022185
X032061Y-002435
X032061Y-008685
X032061Y-013185
X032061Y-021185
X033811Y-003185
X033811Y-011935
X033811Y-020685
X033811Y-031185
X034061Y-005185
X034061Y-012435
X034061Y-021185
X034061Y-030685
X034311Y-019185
X034311Y-029685
X034561Y-017185
X034561Y-028435
X036561Y-026185
X036561Y-031685
X036811Y-007435
X036811Y-010685
X036811Y-032685
X037061Y-008185
X037061Y-011685
X037061Y-025935
X037561Y-009185
X037561Y-012685
X037561Y-026685
X037811Y-010185
X037811Y-014685
X037811Y-025685
X038061Y-003435
X038061Y-012685
X038061Y-025435
X039811Y-016185
X039811Y-020685
X040061Y-018185
X040061Y-022685
X040311Y-004185
X040311Y-015685
X040311Y-019185
X040311Y-023685
X040561Y-005185
X040561Y-017435
X040811Y-006185
X040811Y-018685
X042561Y-015935
X042561Y-019685
X042811Y-011685
X042811Y-020435
X043061Y-010685
X043061Y-019685
X043311Y-021685
X043561Y-022685
X043811Y-023685
X044061Y-020685
X044311Y-024685
X044561Y-024935
X044811Y-025185
X049311Y-014935
X049311Y-027935
X049811Y-016685
X049811Y-018185
X050061Y-011185
X050311Y-013935
X050561Y-013185
X050561Y-013685
X050811Y-012935
X051061Y-009685
X051561Y-008685
X051561Y-012185
X051811Y-011935
X052061Y-004685
X052061Y-012435
X052311Y-005685
X052561Y-007685
X052561Y-015685
X052811Y-006685
X052811Y-012685
X054311Y-025935
X055311Y-026185
X055561Y-026435
X055811Y-025685
X055811Y-026685
X056311Y-015185
X056811Y-018935
X057561Y-023185
X057811Y-019185
X058061Y-020185
X058311Y-008185
X058311Y-021185
X059311Y-017685
X060311Y-018685
T2
X012561Y-001685
X021561Y-032185
X039561Y-015435
X040561Y-028435
X041561Y-028435
X048411Y-015435
X048411Y-028435
X054811Y-014685
T3
X001811Y-020685
X001811Y-026685
X002311Y-037685
X002343Y-018685
X004311Y-018685
X004811Y-020685
X004811Y-026685
X006311Y-037685
X007311Y-000898
X007311Y-001685
X007311Y-004685
X007311Y-005685
X007311Y-006685
X007311Y-007685
X007311Y-008685
X007311Y-009685
X007311Y-010685
X007311Y-011685
X007311Y-012685
X007311Y-014185
X007311Y-015185
X007311Y-016185
X007311Y-017185
X007311Y-018185
X007311Y-019185
X007311Y-020185
X007311Y-021185
X007311Y-022185
X007311Y-025935
X007311Y-026722
X007311Y-027935
X007311Y-031935
X007311Y-033217
X007311Y-035185
X008311Y-037685
X008811Y-004685
X008811Y-005685
X008811Y-006685
X008811Y-007685
X008811Y-008685
X008811Y-009685
X008811Y-010685
X008811Y-011685
X008811Y-012685
X008811Y-014185
X008811Y-015185
X008811Y-016185
X008811Y-017185
X008811Y-018185
X008811Y-019185
X008811Y-020185
X008811Y-021185
X008811Y-022185
X008811Y-029185
X008811Y-030185
X008811Y-031185
X008811Y-032185
X008811Y-033185
X008811Y-034185
X008811Y-035185
X009343Y-027185
X010311Y-012467
X010311Y-014435
X011311Y-000898
X011311Y-001685
X011311Y-027185
X011811Y-003185
X011811Y-004185
X011811Y-005185
X011811Y-006185
X011811Y-007185
X011811Y-008185
X011811Y-009185
X011811Y-010185
X011811Y-011185
X011811Y-012185
X011811Y-013185
X011811Y-014185
X011811Y-015185
X011811Y-016185
X011811Y-017185
X011811Y-018185
X011811Y-019185
X011811Y-020185
X011811Y-021185
X011811Y-022185
X011811Y-029185
X011811Y-030185
X011811Y-031185
X011811Y-032185
X011811Y-033185
X011811Y-034185
X011811Y-035185
X012311Y-037685
X014311Y-037685
X014811Y-029185
X014811Y-030185
X014811Y-031185
X014811Y-032185
X014811Y-033185
X014811Y-034185
X014811Y-035185
X015061Y-001185
X015343Y-027185
X017030Y-001185
X017311Y-027185
X017811Y-003185
X017811Y-004185
X017811Y-005185
X017811Y-006185
X017811Y-007185
X017811Y-008185
X017811Y-009185
X017811Y-010185
X017811Y-011185
X017811Y-012185
X017811Y-013185
X017811Y-014185
X017811Y-015185
X017811Y-016185
X017811Y-017185
X017811Y-018185
X017811Y-019185
X017811Y-020185
X017811Y-021185
X017811Y-022185
X017811Y-029185
X017811Y-030185
X017811Y-031185
X017811Y-032185
X017811Y-033185
X017811Y-034185
X017811Y-035185
X018311Y-037685
X020811Y-003185
X020811Y-004185
X020811Y-005185
X020811Y-006185
X020811Y-007185
X020811Y-008185
X020811Y-009185
X020811Y-010185
X020811Y-011185
X020811Y-012185
X020811Y-016185
X020811Y-017185
X020811Y-018185
X020811Y-019185
X020811Y-020185
X020811Y-021185
X020811Y-022185
X020811Y-023185
X020811Y-024185
X020811Y-025185
X020811Y-029185
X020811Y-030185
X020811Y-031185
X020811Y-032185
X020811Y-033185
X020811Y-034185
X020811Y-035185
X020811Y-036185
X020811Y-037185
X020811Y-038185
X021343Y-001185
X021343Y-014185
X021343Y-027185
X023311Y-001185
X023311Y-014185
X023311Y-027185
X023811Y-003185
X023811Y-004185
X023811Y-005185
X023811Y-006185
X023811Y-007185
X023811Y-008185
X023811Y-009185
X023811Y-010185
X023811Y-011185
X023811Y-012185
X023811Y-016185
X023811Y-017185
X023811Y-018185
X023811Y-019185
X023811Y-020185
X023811Y-021185
X023811Y-022185
X023811Y-023185
X023811Y-024185
X023811Y-025185
X023811Y-029185
X023811Y-030185
X023811Y-031185
X023811Y-032185
X023811Y-033185
X023811Y-034185
X023811Y-035185
X023811Y-036185
X023811Y-037185
X023811Y-038185
X025311Y-034185
X025311Y-038185
X026811Y-003185
X026811Y-004185
X026811Y-005185
X026811Y-006185
X026811Y-007185
X026811Y-008185
X026811Y-009185
X026811Y-010185
X026811Y-011185
X026811Y-012185
X026811Y-016185
X026811Y-017185
X026811Y-018185
X026811Y-019185
X026811Y-020185
X026811Y-021185
X026811Y-022185
X026811Y-029185
X026811Y-030185
X026811Y-031185
X026811Y-032185
X026811Y-033185
X026811Y-034185
X026811Y-035185
X026811Y-036185
X026811Y-037185
X026811Y-038185
X027343Y-001185
X027343Y-014185
X027343Y-027185
X029311Y-001185
X029311Y-014185
X029311Y-027185
X029811Y-003185
X029811Y-004185
X029811Y-005185
X029811Y-006185
X029811Y-007185
X029811Y-008185
X029811Y-009185
X029811Y-010185
X029811Y-011185
X029811Y-012185
X029811Y-016185
X029811Y-017185
X029811Y-018185
X029811Y-019185
X029811Y-020185
X029811Y-021185
X029811Y-022185
X029811Y-029185
X029811Y-030185
X029811Y-031185
X029811Y-032185
X029811Y-033185
X029811Y-034185
X029811Y-035185
X029811Y-036185
X029811Y-037185
X029811Y-038185
X032811Y-003185
X032811Y-004185
X032811Y-005185
X032811Y-006185
X032811Y-007185
X032811Y-008185
X032811Y-009185
X032811Y-010185
X032811Y-011185
X032811Y-016185
X032811Y-017185
X032811Y-018185
X032811Y-019185
X032811Y-020185
X032811Y-021185
X032811Y-022185
X032811Y-029185
X032811Y-030185
X032811Y-031185
X032811Y-032185
X032811Y-033185
X032811Y-034185
X032811Y-035185
X032811Y-036185
X032811Y-037185
X033343Y-001185
X033343Y-014185
X033343Y-027185
X035311Y-001185
X035311Y-014185
X035311Y-027185
X035811Y-003185
X035811Y-004185
X035811Y-005185
X035811Y-006185
X035811Y-007185
X035811Y-008185
X035811Y-009185
X035811Y-010185
X035811Y-011185
X035811Y-016185
X035811Y-017185
X035811Y-018185
X035811Y-019185
X035811Y-020185
X035811Y-021185
X035811Y-022185
X035811Y-029185
X035811Y-030185
X035811Y-031185
X035811Y-032185
X035811Y-033185
X035811Y-034185
X035811Y-035185
X035811Y-036185
X035811Y-037185
X038811Y-003185
X038811Y-004185
X038811Y-005185
X038811Y-006185
X038811Y-007185
X038811Y-008185
X038811Y-009185
X038811Y-010185
X038811Y-011185
X038811Y-016185
X038811Y-017185
X038811Y-018185
X038811Y-019185
X038811Y-020185
X038811Y-021185
X038811Y-022185
X038811Y-023185
X038811Y-024185
X038811Y-029185
X038811Y-030185
X038811Y-031185
X038811Y-032185
X038811Y-033185
X038811Y-034185
X038811Y-035185
X038811Y-036185
X038811Y-037185
X039343Y-001185
X039343Y-014185
X039343Y-027185
X041311Y-001185
X041311Y-014185
X041311Y-027185
X041811Y-003185
X041811Y-004185
X041811Y-005185
X041811Y-006185
X041811Y-007185
X041811Y-008185
X041811Y-009185
X041811Y-010185
X041811Y-011185
X041811Y-016185
X041811Y-017185
X041811Y-018185
X041811Y-019185
X041811Y-020185
X041811Y-021185
X041811Y-022185
X041811Y-023185
X041811Y-024185
X041811Y-029185
X041811Y-030185
X041811Y-031185
X041811Y-032185
X041811Y-033185
X041811Y-034185
X041811Y-035185
X041811Y-036185
X041811Y-037185
X044311Y-000898
X044311Y-001685
X045311Y-014185
X045311Y-027185
X049311Y-003185
X049311Y-004185
X049311Y-005185
X049311Y-006185
X049311Y-007185
X049311Y-008185
X049311Y-009185
X049311Y-010185
X049311Y-011185
X049311Y-014185
X049311Y-016185
X049311Y-017185
X049311Y-018185
X049311Y-019185
X049311Y-020185
X049311Y-021185
X049311Y-022185
X049311Y-023185
X049311Y-024185
X049311Y-027185
X049311Y-029185
X049311Y-030185
X049311Y-031185
X049311Y-032185
X049311Y-033185
X049311Y-034185
X049311Y-035185
X049311Y-036185
X049311Y-037185
X051811Y-016185
X051811Y-017185
X051811Y-018185
X051811Y-019185
X051811Y-020185
X051811Y-021185
X051811Y-022185
X051811Y-023185
X051811Y-024185
X052311Y-014185
X052311Y-027185
X053311Y-016185
X053311Y-017185
X053311Y-018185
X053311Y-019185
X053311Y-020185
X053311Y-021185
X053311Y-022185
X053311Y-023185
X053311Y-024185
X054811Y-016185
X054811Y-017185
X054811Y-018185
X054811Y-019185
X054811Y-020185
X054811Y-021185
X054811Y-022185
X054811Y-023185
X054811Y-024185
X056311Y-003185
X056311Y-004185
X056311Y-005185
X056311Y-006185
X056311Y-007185
X056311Y-008185
X056311Y-009185
X056311Y-010185
X056311Y-011185
X056311Y-014185
X056311Y-016185
X056311Y-017185
X056311Y-018185
X056311Y-019185
X056311Y-020185
X056311Y-021185
X056311Y-022185
X056311Y-023185
X056311Y-024185
X056311Y-027185
X056311Y-029185
X056311Y-030185
X056311Y-031185
X056311Y-032185
X056311Y-033185
X056311Y-034185
X056311Y-035185
X056311Y-036185
X056311Y-037185
T4
X058811Y-004185
X058811Y-005185
X058811Y-006185
X058811Y-007185
X058811Y-008185
X058811Y-009185
X058811Y-010185
X058811Y-011185
X058811Y-012185
X058811Y-013185
X058811Y-014185
X058811Y-015185
X058811Y-016185
X058811Y-017185
X058811Y-018185
X058811Y-019185
X058811Y-020185
X058811Y-021185
X058811Y-022185
X058811Y-023185
X058811Y-024185
X058811Y-025185
X058811Y-026185
X058811Y-027185
X058811Y-028185
X058811Y-029185
X058811Y-030185
X058811Y-031185
X058811Y-032185
X058811Y-033185
X058811Y-034185
X058811Y-035185
X059811Y-004185
X059811Y-005185
X059811Y-006185
X059811Y-007185
X059811Y-008185
X059811Y-009185
X059811Y-010185
X059811Y-011185
X059811Y-012185
X059811Y-013185
X059811Y-014185
X059811Y-015185
X059811Y-016185
X059811Y-017185
X059811Y-018185
X059811Y-019185
X059811Y-020185
X059811Y-021185
X059811Y-022185
X059811Y-023185
X059811Y-024185
X059811Y-025185
X059811Y-026185
X059811Y-027185
X059811Y-028185
X059811Y-029185
X059811Y-030185
X059811Y-031185
X059811Y-032185
X059811Y-033185
X059811Y-034185
X059811Y-035185
X060811Y-004185
X060811Y-005185
X060811Y-006185
X060811Y-007185
X060811Y-008185
X060811Y-009185
X060811Y-010185
X060811Y-011185
X060811Y-012185
X060811Y-013185
X060811Y-014185
X060811Y-015185
X060811Y-016185
X060811Y-017185
X060811Y-018185
X060811Y-019185
X060811Y-020185
X060811Y-021185
X060811Y-022185
X060811Y-023185
X060811Y-024185
X060811Y-025185
X060811Y-026185
X060811Y-027185
X060811Y-028185
X060811Y-029185
X060811Y-030185
X060811Y-031185
X060811Y-032185
X060811Y-033185
X060811Y-034185
X060811Y-035185
T5
X046811Y-004185
X046811Y-005185
X046811Y-006185
X046811Y-007185
X046811Y-008185
X046811Y-009185
X046811Y-010185
X046811Y-011185
X046811Y-017185
X046811Y-018185
X046811Y-019185
X046811Y-020185
X046811Y-021185
X046811Y-022185
X046811Y-023185
X046811Y-024185
X046811Y-030185
X046811Y-031185
X046811Y-032185
X046811Y-033185
X046811Y-034185
X046811Y-035185
X046811Y-037185
X047811Y-004185
X047811Y-005185
X047811Y-006185
X047811Y-007185
X047811Y-008185
X047811Y-009185
X047811Y-010185
X047811Y-011185
X047811Y-017185
X047811Y-018185
X047811Y-019185
X047811Y-020185
X047811Y-021185
X047811Y-022185
X047811Y-023185
X047811Y-024185
X047811Y-030185
X047811Y-031185
X047811Y-032185
X047811Y-033185
X047811Y-034185
X047811Y-035185
X047811Y-037185
X053811Y-004185
X053811Y-005185
X053811Y-006185
X053811Y-007185
X053811Y-008185
X053811Y-009185
X053811Y-010185
X053811Y-011185
X053811Y-030185
X053811Y-031185
X053811Y-032185
X053811Y-033185
X053811Y-034185
X053811Y-035185
X053811Y-036185
X053811Y-037185
X054811Y-004185
X054811Y-005185
X054811Y-006185
X054811Y-007185
X054811Y-008185
X054811Y-009185
X054811Y-010185
X054811Y-011185
X054811Y-030185
X054811Y-031185
X054811Y-032185
X054811Y-033185
X054811Y-034185
X054811Y-035185
X054811Y-036185
X054811Y-037185
T6
X002311Y-005685
X003311Y-005685
X004311Y-005685
X009311Y-001685
X009311Y-002685
X013811Y-024935
X014811Y-024935
X015811Y-024935
X050811Y-002185
X050811Y-003185
T7
X003061Y-029185
X003061Y-030957
X003061Y-033185
X003061Y-034957
X005620Y-029185
X005620Y-030957
X005620Y-033185
X005620Y-034957
T8
X061811Y-002185
X061811Y-037185
T9
X003311Y-012244
T6
X002949Y-001291G85X002949Y-002079
G05
X003736Y-003535G85X004524Y-003535
G05
X005311Y-001291G85X005311Y-002079
G05
T0
M30
